<svg xmlns="http://www.w3.org/2000/svg" xmlns:xlink="http://www.w3.org/1999/xlink" width="655" height="296.67" viewBox="0 0 655 296.67"><defs><clipPath id="clip-path"><ellipse cx="147.41" cy="148.24" rx="125.25" ry="125.65" style="fill:none"/></clipPath><clipPath id="clip-path-2"><ellipse cx="506.12" cy="147.34" rx="124.87" ry="125.27" style="fill:none"/></clipPath><linearGradient id="linear-gradient" x1="140.04" y1="148.33" x2="514.96" y2="148.33" gradientUnits="userSpaceOnUse"><stop offset="0.01" stop-color="#ec8d24"/><stop offset="1" stop-color="#e63e2c"/></linearGradient><linearGradient id="linear-gradient-2" x1="348.63" y1="135.73" x2="309.07" y2="158.58" gradientUnits="userSpaceOnUse"><stop offset="0.01" stop-color="#d05527" stop-opacity="0.1"/><stop offset="0.07" stop-color="#d05527" stop-opacity="0.13"/><stop offset="0.14" stop-color="#d05627" stop-opacity="0.2"/><stop offset="0.23" stop-color="#d05727" stop-opacity="0.33"/><stop offset="0.32" stop-color="#d05927" stop-opacity="0.5"/><stop offset="0.42" stop-color="#d05b27" stop-opacity="0.72"/><stop offset="0.52" stop-color="#d05d27" stop-opacity="0.99"/><stop offset="0.52" stop-color="#d05d27"/></linearGradient><linearGradient id="linear-gradient-3" x1="2864.6" y1="391.85" x2="2824.9" y2="414.77" gradientTransform="translate(3167.24 568.97) rotate(180)" xlink:href="#linear-gradient-2"/></defs><title>655</title><g id="New_Icons" data-name="New Icons"><ellipse cx="147.41" cy="148.24" rx="125.25" ry="125.65" style="fill:#d05527"/><g style="clip-path:url(#clip-path)"><line x1="236.32" y1="59.05" x2="58.51" y2="237.43" style="fill:none;stroke:#fff;stroke-miterlimit:10;stroke-width:1.64938928205071px"/><line x1="236.32" y1="237.43" x2="58.51" y2="59.05" style="fill:none;stroke:#fff;stroke-miterlimit:10;stroke-width:1.64938928205071px"/></g><ellipse cx="506.12" cy="147.34" rx="124.87" ry="125.27" style="fill:#e63e2c"/><ellipse cx="147.8" cy="147.72" rx="56.93" ry="57.11" style="fill:#fff"/><ellipse cx="506.12" cy="147.34" rx="56.76" ry="56.94" style="fill:#fff"/><g style="clip-path:url(#clip-path-2)"><line x1="506.38" y1="21.31" x2="507.31" y2="148.2" style="fill:none;stroke:#fff;stroke-miterlimit:10;stroke-width:1.64938928205071px"/><line x1="507.31" y1="147.45" x2="604.61" y2="69.1" style="fill:none;stroke:#fff;stroke-miterlimit:10;stroke-width:1.64938928205071px"/><line x1="408.59" y1="69.31" x2="506.49" y2="146.79" style="fill:none;stroke:#fff;stroke-miterlimit:10;stroke-width:1.64938928205071px"/><line x1="384.56" y1="175.04" x2="506.57" y2="148.03" style="fill:none;stroke:#fff;stroke-miterlimit:10;stroke-width:1.64938928205071px"/><line x1="507.31" y1="147.45" x2="627.77" y2="174.76" style="fill:none;stroke:#fff;stroke-miterlimit:10;stroke-width:1.64938928205071px"/><line x1="507.31" y1="147.45" x2="560.2" y2="260.24" style="fill:none;stroke:#fff;stroke-miterlimit:10;stroke-width:1.64938928205071px"/><line x1="507.31" y1="147.45" x2="452.65" y2="260.24" style="fill:none;stroke:#fff;stroke-miterlimit:10;stroke-width:1.64938928205071px"/></g><path d="M507.14,0V15.69c72.9,0,132.22,59.51,132.22,132.64S580,281,507.14,281v15.7c81.53,0,147.86-66.55,147.86-148.34S588.67,0,507.14,0Z" style="fill:#e63e2c"/><path d="M507.14,0c-38.92,0-69.85,10.83-97.35,34.1-24.16,20.43-42.58,47.93-62.1,77-8.39,12.54-17.08,25.5-26.48,38.26q-4.11,5.58-8.15,11.11C265.72,225.15,224.85,281,147.86,281a7.85,7.85,0,0,0,0,15.7c84.9,0,130-61.63,177.81-126.86q4-5.52,8.12-11.08c9.61-13,18.39-26.16,26.89-38.83,39-58.22,69.83-104.21,146.46-104.21a7.85,7.85,0,0,0,0-15.69Z" style="fill:url(#linear-gradient)"/><polygon points="347.65 139.18 336.15 128.38 322.04 148.31 333.67 158.93 347.65 139.18" style="fill:url(#linear-gradient-2)"/><polygon points="303.53 173.5 315.01 184.31 329.41 164.67 317.78 154.04 303.53 173.5" style="fill:url(#linear-gradient-3)"/><path d="M147.86,0C66.33,0,0,66.54,0,148.33S66.33,296.67,147.86,296.67V281C75,281,15.64,221.47,15.64,148.33S75,15.69,147.86,15.69Z" style="fill:#ec8d24"/><path d="M147.86,0a7.85,7.85,0,0,0,0,15.69c76.63,0,107.45,46,146.46,104.21,8.5,12.67,17.28,25.78,26.89,38.83q4.08,5.55,8.12,11.08C377.11,235,422.24,296.67,507.14,296.67a7.85,7.85,0,0,0,0-15.7c-77,0-117.86-55.82-165.2-120.46q-4.05-5.52-8.15-11.11c-9.4-12.76-18.09-25.72-26.48-38.26-19.52-29.11-37.94-56.61-62.1-77C217.71,10.83,186.78,0,147.86,0Z" style="fill:url(#linear-gradient)"/><path d="M520,69a3.33,3.33,0,0,1,3.7,3.74q0,4.11-3.7,4.11h-2.75V69Zm.06,7a2.39,2.39,0,0,0,1.92-.81,3.47,3.47,0,0,0,.68-2.28,3.36,3.36,0,0,0-.65-2.28,2.44,2.44,0,0,0-1.91-.72h-1.81v6.09Z" style="fill:#fff"/><path d="M527.13,71a2.26,2.26,0,0,1,1.89.87,3.62,3.62,0,0,1,.68,2.28v.11h-4.24v.06a1.81,1.81,0,0,0,.47,1.32,1.68,1.68,0,0,0,1.29.49A1.34,1.34,0,0,0,528.69,75h.92a2.26,2.26,0,0,1-.82,1.44,2.52,2.52,0,0,1-1.6.49,2.42,2.42,0,0,1-2-.88,3.32,3.32,0,0,1-.69-2.13,3,3,0,0,1,.76-2.1A2.45,2.45,0,0,1,527.13,71Zm1.58,2.43a1.71,1.71,0,0,0-.5-1.15,1.54,1.54,0,0,0-1.14-.45,1.52,1.52,0,0,0-1.1.43,1.76,1.76,0,0,0-.51,1.17Z" style="fill:#fff"/><path d="M533,71c1.41,0,2.12.51,2.12,1.53v3.28c0,.21.09.32.29.32a.75.75,0,0,0,.29-.06v.73A1.41,1.41,0,0,1,535,77c-.53,0-.79-.29-.79-.88a2.48,2.48,0,0,1-2,.88,2.06,2.06,0,0,1-1.37-.41,1.42,1.42,0,0,1-.5-1.18,1.55,1.55,0,0,1,.49-1.21,4.64,4.64,0,0,1,2.29-.68,1.82,1.82,0,0,0,.83-.24.55.55,0,0,0,.21-.47q0-.93-1.26-.93a1.65,1.65,0,0,0-1,.26,1,1,0,0,0-.38.82h-.93C530.65,71.64,531.45,71,533,71Zm-1.65,4.29a.74.74,0,0,0,.29.62,1.28,1.28,0,0,0,.81.22,2,2,0,0,0,1.25-.38,1.1,1.1,0,0,0,.48-.89v-1a1.43,1.43,0,0,1-.65.24l-1,.14a1.93,1.93,0,0,0-.92.33A.87.87,0,0,0,531.34,75.29Z" style="fill:#fff"/><path d="M537.54,69v7.85h-.93V69Z" style="fill:#fff"/><path d="M540.87,71a2.69,2.69,0,0,1,1.71.45,1.75,1.75,0,0,1,.61,1.33h-.94a.88.88,0,0,0-.4-.7,1.58,1.58,0,0,0-.91-.24,1.8,1.8,0,0,0-.88.18.6.6,0,0,0-.33.54.57.57,0,0,0,.29.51,2.66,2.66,0,0,0,.86.33l.88.2a2.85,2.85,0,0,1,1.25.55,1.27,1.27,0,0,1,.43,1,1.53,1.53,0,0,1-.65,1.32A2.89,2.89,0,0,1,541,77a2.82,2.82,0,0,1-1.73-.48,1.8,1.8,0,0,1-.68-1.44h.94a1,1,0,0,0,.41.81,1.9,1.9,0,0,0,1.11.29c.92,0,1.37-.28,1.37-.85a.67.67,0,0,0-.33-.59,4.74,4.74,0,0,0-1.43-.45,3.4,3.4,0,0,1-1.49-.59,1.26,1.26,0,0,1-.45-1,1.41,1.41,0,0,1,.57-1.17A2.46,2.46,0,0,1,540.87,71Z" style="fill:#fff"/><path d="M549.84,71c1.41,0,2.12.51,2.12,1.53v3.28c0,.21.1.32.29.32a.75.75,0,0,0,.29-.06v.73a1.38,1.38,0,0,1-.67.15c-.53,0-.79-.29-.79-.88a2.47,2.47,0,0,1-2,.88,2.07,2.07,0,0,1-1.38-.41,1.45,1.45,0,0,1-.5-1.18,1.58,1.58,0,0,1,.49-1.21,4.69,4.69,0,0,1,2.3-.68,1.77,1.77,0,0,0,.82-.24.54.54,0,0,0,.22-.47q0-.93-1.26-.93a1.68,1.68,0,0,0-1,.26,1,1,0,0,0-.38.82h-.93C547.5,71.64,548.31,71,549.84,71Zm-1.64,4.29a.73.73,0,0,0,.28.62,1.28,1.28,0,0,0,.81.22,2,2,0,0,0,1.25-.38,1.11,1.11,0,0,0,.49-.89v-1a1.52,1.52,0,0,1-.66.24l-1,.14a1.93,1.93,0,0,0-.92.33A.89.89,0,0,0,548.2,75.29Z" style="fill:#fff"/><path d="M556.15,71q2,0,2,2v3.78h-.93V72.94a1.09,1.09,0,0,0-.3-.79,1.11,1.11,0,0,0-.87-.32,1.58,1.58,0,0,0-1.23.48,1.83,1.83,0,0,0-.43,1.27v3.24h-.93V71.13h.87V72h0A2,2,0,0,1,556.15,71Z" style="fill:#fff"/><path d="M564.57,69v7.85h-.93v-.77h0a1.41,1.41,0,0,1-.69.67,2.45,2.45,0,0,1-1.11.23,2.39,2.39,0,0,1-1.9-.82,3.68,3.68,0,0,1,0-4.32,2.36,2.36,0,0,1,1.88-.81,2.6,2.6,0,0,1,1.07.23,1.73,1.73,0,0,1,.77.66h0V69ZM560.18,74a2.28,2.28,0,0,0,.49,1.52,1.58,1.58,0,0,0,1.27.58,1.53,1.53,0,0,0,1.26-.59,2.44,2.44,0,0,0,.47-1.56,2.48,2.48,0,0,0-.47-1.56,1.6,1.6,0,0,0-1.33-.59,1.45,1.45,0,0,0-1.25.59A2.65,2.65,0,0,0,560.18,74Z" style="fill:#fff"/><path d="M528.59,80.34a3.65,3.65,0,0,1,2.28.67A2.77,2.77,0,0,1,532,83h-1a1.9,1.9,0,0,0-.76-1.28,2.53,2.53,0,0,0-1.56-.45,2.38,2.38,0,0,0-2,.9,3.73,3.73,0,0,0-.74,2.43,3.43,3.43,0,0,0,.74,2.24,2.39,2.39,0,0,0,2,.9,2.53,2.53,0,0,0,1.8-.67,2.34,2.34,0,0,0,.71-1.77v-.12h-2.5v-.88H532v4.13h-.66l-.27-1a2.91,2.91,0,0,1-1.09.87,3.38,3.38,0,0,1-1.42.3,3.47,3.47,0,0,1-2.67-1.15,4,4,0,0,1-1.06-2.81,4.66,4.66,0,0,1,1-3.07A3.35,3.35,0,0,1,528.59,80.34Z" style="fill:#fff"/><path d="M536.36,82.56v1a2,2,0,0,0-1.55.56,2.55,2.55,0,0,0-.5,1.73v2.54h-.93V82.69h.88v1.2h0a2.08,2.08,0,0,1,2-1.33Z" style="fill:#fff"/><path d="M539.31,82.56a2.55,2.55,0,0,1,2,.82,3,3,0,0,1,.74,2.16,3.08,3.08,0,0,1-.74,2.14,2.53,2.53,0,0,1-2,.83,2.63,2.63,0,0,1-2-.8,3.06,3.06,0,0,1-.75-2.17,3.1,3.1,0,0,1,.74-2.17A2.58,2.58,0,0,1,539.31,82.56Zm-1.76,3a2.32,2.32,0,0,0,.49,1.55,1.57,1.57,0,0,0,1.27.6,1.62,1.62,0,0,0,1.27-.59,2.34,2.34,0,0,0,.5-1.56,2.36,2.36,0,0,0-.5-1.55,1.57,1.57,0,0,0-1.28-.6A1.59,1.59,0,0,0,538,84,2.38,2.38,0,0,0,537.55,85.54Z" style="fill:#fff"/><path d="M543.67,82.69,545,87.35h0l1.14-4.66h1l1.19,4.66h0l1.27-4.66h1l-1.8,5.68h-1l-1.17-4.52h0l-1.14,4.52h-1l-1.82-5.69Z" style="fill:#fff"/><path d="M552.76,81v1.7h1.13v.83h-1.13v3.56a.61.61,0,0,0,.1.37.75.75,0,0,0,.5.11h.53v.82h-.76a1.59,1.59,0,0,1-1-.24,1.22,1.22,0,0,1-.29-1V83.52h-1v-.83h1V81Z" style="fill:#fff"/><path d="M555.86,80.53v3h0a1.36,1.36,0,0,1,.69-.71,2.35,2.35,0,0,1,1.1-.26q2,0,2,2v3.78h-.93V84.5a1.09,1.09,0,0,0-.3-.79,1.11,1.11,0,0,0-.87-.32,1.57,1.57,0,0,0-1.22.48,1.79,1.79,0,0,0-.44,1.27v3.24h-.94V80.53Z" style="fill:#fff"/><path d="M447.69,69a3.44,3.44,0,0,1,2.6.94,3.85,3.85,0,0,1,.91,2.8q0,4.11-3.51,4.11h-2.61V69Zm.05,7a2.2,2.2,0,0,0,1.83-.81,3.58,3.58,0,0,0,.64-2.28,3.47,3.47,0,0,0-.61-2.28,2.26,2.26,0,0,0-1.81-.72h-1.72v6.09Z" style="fill:#fff"/><path d="M453.12,69v1.14h-.89V69Zm0,2.16v5.69h-.89V71.13Z" style="fill:#fff"/><path d="M456.6,71a1.71,1.71,0,0,1,1.61,1h0v-.82h.84v5.26c0,1.83-.83,2.74-2.49,2.74a2.55,2.55,0,0,1-1.61-.46,1.54,1.54,0,0,1-.63-1.21h.88a.84.84,0,0,0,.42.66,1.69,1.69,0,0,0,1,.26c1.07,0,1.61-.72,1.61-2.17v-.36h0a1.68,1.68,0,0,1-.66.76,2,2,0,0,1-1,.28,2.2,2.2,0,0,1-1.75-.79,3.22,3.22,0,0,1-.65-2.09,3.41,3.41,0,0,1,.66-2.18A2.21,2.21,0,0,1,456.6,71Zm-1.54,2.9a2.82,2.82,0,0,0,.39,1.58,1.29,1.29,0,0,0,1.13.58,1.37,1.37,0,0,0,1.16-.6,2.64,2.64,0,0,0,.44-1.6,2.37,2.37,0,0,0-.41-1.47,1.29,1.29,0,0,0-1.13-.56,1.39,1.39,0,0,0-1.17.56A2.48,2.48,0,0,0,455.06,73.9Z" style="fill:#fff"/><path d="M461.24,69v1.14h-.88V69Zm0,2.16v5.69h-.88V71.13Z" style="fill:#fff"/><path d="M463.76,69.43v1.7h1.08V72h-1.08v3.56a.61.61,0,0,0,.1.37.67.67,0,0,0,.47.11h.51v.82h-.73a1.46,1.46,0,0,1-1-.24,1.27,1.27,0,0,1-.27-1V72H462v-.83h.92v-1.7Z" style="fill:#fff"/><path d="M467.94,71q2,0,2,1.53v3.28c0,.21.1.32.28.32a.66.66,0,0,0,.27-.06v.73a1.22,1.22,0,0,1-.63.15c-.5,0-.75-.29-.75-.88a2.31,2.31,0,0,1-1.9.88,1.88,1.88,0,0,1-1.3-.41,1.47,1.47,0,0,1-.48-1.18,1.6,1.6,0,0,1,.47-1.21,4.27,4.27,0,0,1,2.18-.68,1.61,1.61,0,0,0,.78-.24.55.55,0,0,0,.21-.47q0-.93-1.2-.93a1.54,1.54,0,0,0-1,.26,1.07,1.07,0,0,0-.35.82h-.89C465.72,71.64,466.48,71,467.94,71Zm-1.56,4.29a.75.75,0,0,0,.27.62,1.18,1.18,0,0,0,.77.22,1.82,1.82,0,0,0,1.18-.38,1.11,1.11,0,0,0,.47-.89v-1a1.39,1.39,0,0,1-.63.24l-.9.14a1.76,1.76,0,0,0-.88.33A.88.88,0,0,0,466.38,75.29Z" style="fill:#fff"/><path d="M472.18,69v7.85h-.88V69Z" style="fill:#fff"/><path d="M478.49,71q2,0,2,1.53v3.28c0,.21.1.32.29.32a.66.66,0,0,0,.27-.06v.73a1.29,1.29,0,0,1-.64.15c-.5,0-.75-.29-.75-.88a2.29,2.29,0,0,1-1.9.88,1.88,1.88,0,0,1-1.3-.41,1.47,1.47,0,0,1-.48-1.18,1.6,1.6,0,0,1,.47-1.21,4.27,4.27,0,0,1,2.18-.68,1.7,1.7,0,0,0,.79-.24.58.58,0,0,0,.2-.47q0-.93-1.2-.93a1.51,1.51,0,0,0-1,.26,1,1,0,0,0-.36.82h-.89C476.27,71.64,477,71,478.49,71Zm-1.56,4.29a.75.75,0,0,0,.27.62,1.18,1.18,0,0,0,.77.22,1.84,1.84,0,0,0,1.19-.38,1.13,1.13,0,0,0,.46-.89v-1a1.39,1.39,0,0,1-.63.24l-.9.14a1.76,1.76,0,0,0-.88.33A.88.88,0,0,0,476.93,75.29Z" style="fill:#fff"/><path d="M484.4,71c1.24,0,1.85.68,1.85,2v3.78h-.88V72.94a1.17,1.17,0,0,0-.28-.79,1,1,0,0,0-.83-.32,1.47,1.47,0,0,0-1.17.48,1.92,1.92,0,0,0-.41,1.27v3.24h-.88V71.13h.83V72h0A1.89,1.89,0,0,1,484.4,71Z" style="fill:#fff"/><path d="M492.32,69v7.85h-.89v-.77h0a1.43,1.43,0,0,1-.66.67,2.44,2.44,0,0,1-2.86-.59,3.82,3.82,0,0,1,0-4.32,2.19,2.19,0,0,1,1.79-.81,2.45,2.45,0,0,1,1,.23,1.74,1.74,0,0,1,.73.66h0V69ZM488.15,74a2.37,2.37,0,0,0,.46,1.52,1.48,1.48,0,0,0,1.21.58,1.44,1.44,0,0,0,1.2-.59,2.55,2.55,0,0,0,.44-1.56,2.6,2.6,0,0,0-.44-1.56,1.51,1.51,0,0,0-1.27-.59,1.33,1.33,0,0,0-1.18.59A2.72,2.72,0,0,0,488.15,74Z" style="fill:#fff"/><path d="M441.08,80.53v.88H438.6v7h-1v-7h-2.48v-.88Z" style="fill:#fff"/><path d="M443.42,82.56v1a1.81,1.81,0,0,0-1.47.56,2.61,2.61,0,0,0-.48,1.73v2.54h-.88V82.69h.83v1.2h0a2,2,0,0,1,1.86-1.33Z" style="fill:#fff"/><path d="M446.12,82.56q2,0,2,1.53v3.28c0,.21.09.32.28.32a.66.66,0,0,0,.27-.06v.73a1.22,1.22,0,0,1-.63.15c-.5,0-.75-.29-.75-.88a2.32,2.32,0,0,1-1.9.88,1.91,1.91,0,0,1-1.31-.41,1.49,1.49,0,0,1-.47-1.18,1.57,1.57,0,0,1,.47-1.21,4.22,4.22,0,0,1,2.17-.68,1.66,1.66,0,0,0,.79-.24.55.55,0,0,0,.2-.47c0-.62-.4-.93-1.19-.93a1.54,1.54,0,0,0-1,.26,1,1,0,0,0-.36.82h-.88C443.9,83.2,444.66,82.56,446.12,82.56Zm-1.56,4.29a.75.75,0,0,0,.27.62,1.16,1.16,0,0,0,.77.22,1.82,1.82,0,0,0,1.18-.38,1.09,1.09,0,0,0,.46-.89v-1a1.34,1.34,0,0,1-.62.24l-.91.14a1.72,1.72,0,0,0-.87.33A.88.88,0,0,0,444.56,86.85Z" style="fill:#fff"/><path d="M451.93,82.56q1.86,0,1.86,2v3.78h-.89V84.5a1.12,1.12,0,0,0-.28-.79,1,1,0,0,0-.82-.32,1.48,1.48,0,0,0-1.18.48,1.92,1.92,0,0,0-.41,1.27v3.24h-.88V82.69h.83v.91h0A1.89,1.89,0,0,1,451.93,82.56Z" style="fill:#fff"/><path d="M456.73,82.56a2.45,2.45,0,0,1,1.62.45,1.78,1.78,0,0,1,.58,1.33h-.88a1,1,0,0,0-.38-.7,1.49,1.49,0,0,0-.87-.24,1.64,1.64,0,0,0-.84.18.63.63,0,0,0,0,1.06,2.73,2.73,0,0,0,.82.32l.84.2a2.65,2.65,0,0,1,1.18.55,1.29,1.29,0,0,1,.41,1,1.55,1.55,0,0,1-.61,1.32,3.17,3.17,0,0,1-3.32,0,1.87,1.87,0,0,1-.64-1.45h.88a1,1,0,0,0,.4.81,1.7,1.7,0,0,0,1.05.29c.87,0,1.3-.28,1.3-.85a.67.67,0,0,0-.31-.59,4.41,4.41,0,0,0-1.36-.45,3.16,3.16,0,0,1-1.42-.59,1.28,1.28,0,0,1-.43-1,1.43,1.43,0,0,1,.55-1.17A2.24,2.24,0,0,1,456.73,82.56Z" style="fill:#fff"/><path d="M461.82,80.44a1.72,1.72,0,0,1,.58.09v.81a1.37,1.37,0,0,0-.5-.08c-.45,0-.68.21-.68.62v.81h1v.83h-1v4.86h-.88V83.52h-.91v-.83h.91V81.8a1.32,1.32,0,0,1,.37-1A1.47,1.47,0,0,1,461.82,80.44Z" style="fill:#fff"/><path d="M465.2,82.56a2.36,2.36,0,0,1,1.91.82,3.18,3.18,0,0,1,.71,2.16,3.21,3.21,0,0,1-.71,2.14,2.33,2.33,0,0,1-1.91.83,2.44,2.44,0,0,1-1.9-.8,3.69,3.69,0,0,1,0-4.34A2.41,2.41,0,0,1,465.2,82.56Zm-1.68,3a2.43,2.43,0,0,0,.47,1.55,1.48,1.48,0,0,0,1.21.6,1.5,1.5,0,0,0,1.21-.59,2.44,2.44,0,0,0,.47-1.56,2.47,2.47,0,0,0-.47-1.55,1.47,1.47,0,0,0-1.22-.6A1.45,1.45,0,0,0,464,84,2.43,2.43,0,0,0,463.52,85.54Z" style="fill:#fff"/><path d="M471.48,82.56v1a1.83,1.83,0,0,0-1.47.56,2.61,2.61,0,0,0-.47,1.73v2.54h-.89V82.69h.83v1.2h0a2,2,0,0,1,1.86-1.33Z" style="fill:#fff"/><path d="M474.57,82.56a1.39,1.39,0,0,1,1.48,1,1.8,1.8,0,0,1,.71-.71,1.91,1.91,0,0,1,1-.26,1.84,1.84,0,0,1,1.35.44,1.59,1.59,0,0,1,.43,1.18v4.2h-.88V84.61a1.47,1.47,0,0,0-.24-.92,1,1,0,0,0-.8-.3,1.34,1.34,0,0,0-1.41,1.42v3.57h-.88V84.61a1.47,1.47,0,0,0-.24-.92.93.93,0,0,0-.77-.3,1.38,1.38,0,0,0-.7.18,1.54,1.54,0,0,0-.53.57,1.43,1.43,0,0,0-.21.68v3.56H472V82.69h.84v.84h0A1.94,1.94,0,0,1,474.57,82.56Z" style="fill:#fff"/><path d="M482.89,82.56q2,0,2,1.53v3.28c0,.21.09.32.28.32a.66.66,0,0,0,.27-.06v.73a1.22,1.22,0,0,1-.63.15c-.5,0-.75-.29-.75-.88a2.32,2.32,0,0,1-1.9.88,1.92,1.92,0,0,1-1.31-.41,1.49,1.49,0,0,1-.47-1.18,1.6,1.6,0,0,1,.47-1.21A4.27,4.27,0,0,1,483,85a1.65,1.65,0,0,0,.78-.24.55.55,0,0,0,.21-.47q0-.93-1.2-.93a1.54,1.54,0,0,0-1,.26,1,1,0,0,0-.36.82h-.88C480.67,83.2,481.43,82.56,482.89,82.56Zm-1.56,4.29a.75.75,0,0,0,.27.62,1.18,1.18,0,0,0,.77.22,1.82,1.82,0,0,0,1.18-.38,1.09,1.09,0,0,0,.46-.89v-1a1.34,1.34,0,0,1-.62.24l-.91.14a1.76,1.76,0,0,0-.87.33A.88.88,0,0,0,481.33,86.85Z" style="fill:#fff"/><path d="M487.33,81v1.7h1.07v.83h-1.07v3.56a.61.61,0,0,0,.09.37.67.67,0,0,0,.47.11h.51v.82h-.73a1.46,1.46,0,0,1-1-.24,1.27,1.27,0,0,1-.27-1V83.52h-.92v-.83h.92V81Z" style="fill:#fff"/><path d="M490.14,80.53v1.14h-.89V80.53Zm0,2.16v5.69h-.89V82.69Z" style="fill:#fff"/><path d="M493.66,82.56a2.37,2.37,0,0,1,1.91.82,3.17,3.17,0,0,1,.7,2.16,3.21,3.21,0,0,1-.7,2.14,2.35,2.35,0,0,1-1.91.83,2.43,2.43,0,0,1-1.9-.8,3.14,3.14,0,0,1-.71-2.17,3.18,3.18,0,0,1,.7-2.17A2.39,2.39,0,0,1,493.66,82.56Zm-1.68,3a2.43,2.43,0,0,0,.47,1.55,1.52,1.52,0,0,0,2.41,0,2.38,2.38,0,0,0,.48-1.56,2.47,2.47,0,0,0-.47-1.55,1.47,1.47,0,0,0-1.22-.6,1.45,1.45,0,0,0-1.19.6A2.43,2.43,0,0,0,492,85.54Z" style="fill:#fff"/><path d="M499.74,82.56q1.86,0,1.86,2v3.78h-.89V84.5a1.12,1.12,0,0,0-.28-.79,1,1,0,0,0-.82-.32,1.45,1.45,0,0,0-1.17.48,1.87,1.87,0,0,0-.42,1.27v3.24h-.88V82.69H498v.91h0A1.9,1.9,0,0,1,499.74,82.56Z" style="fill:#fff"/><path d="M573.79,140.84a2.45,2.45,0,0,1,1.71.59,2.23,2.23,0,0,1,.64,1.73,2.12,2.12,0,0,1-2.28,2.33h-2.51v3.21h-1v-7.86Zm-.29,3.77a1.78,1.78,0,0,0,1.17-.36,1.33,1.33,0,0,0,.43-1.09c0-1-.56-1.44-1.67-1.44h-2.08v2.89Z" style="fill:#fff"/><path d="M580.21,142.88v1a2,2,0,0,0-1.56.55,2.56,2.56,0,0,0-.49,1.74v2.54h-.94V143h.88v1.2h0a2.08,2.08,0,0,1,2-1.33Z" style="fill:#fff"/><path d="M583.16,142.88a2.61,2.61,0,0,1,2,.81,3.49,3.49,0,0,1,0,4.3,2.85,2.85,0,0,1-4,0,3,3,0,0,1-.76-2.16,3.1,3.1,0,0,1,.74-2.17A2.61,2.61,0,0,1,583.16,142.88Zm-1.77,3a2.4,2.4,0,0,0,.49,1.55,1.67,1.67,0,0,0,2.54,0,2.32,2.32,0,0,0,.5-1.56,2.37,2.37,0,0,0-.49-1.56,1.64,1.64,0,0,0-2.54,0A2.36,2.36,0,0,0,581.39,145.86Z" style="fill:#fff"/><path d="M589,140.76a1.92,1.92,0,0,1,.61.08v.82a1.52,1.52,0,0,0-.53-.08c-.47,0-.71.21-.71.62V143h1.1v.83h-1.1v4.86h-.93v-4.86h-1V143h1v-.89a1.32,1.32,0,0,1,.39-1A1.67,1.67,0,0,1,589,140.76Zm2.29.08V142h-.93v-1.15Zm0,2.17v5.69h-.93V143Z" style="fill:#fff"/><path d="M594,141.31V143h1.13v.83H594v3.56a.5.5,0,0,0,.1.36c.06.08.23.11.49.11h.54v.83h-.77a1.61,1.61,0,0,1-1-.24,1.24,1.24,0,0,1-.28-1v-3.67h-1V143h1v-1.7Z" style="fill:#fff"/><path d="M598.46,142.88c1.41,0,2.12.51,2.12,1.53v3.28c0,.21.1.31.3.31a.69.69,0,0,0,.28-.05v.73a1.38,1.38,0,0,1-.67.15c-.52,0-.79-.29-.79-.88a2.47,2.47,0,0,1-2,.88,2.12,2.12,0,0,1-1.38-.41,1.47,1.47,0,0,1-.5-1.19,1.61,1.61,0,0,1,.49-1.21,4.8,4.8,0,0,1,2.3-.68,1.93,1.93,0,0,0,.82-.23.55.55,0,0,0,.22-.47c0-.62-.42-.94-1.26-.94a1.75,1.75,0,0,0-1,.26,1,1,0,0,0-.38.82h-.93C596.12,143.51,596.93,142.88,598.46,142.88Zm-1.64,4.29a.72.72,0,0,0,.28.61,1.28,1.28,0,0,0,.81.22,2,2,0,0,0,1.25-.37,1.12,1.12,0,0,0,.49-.89v-1a1.51,1.51,0,0,1-.66.23l-1,.14a1.83,1.83,0,0,0-.93.34A.88.88,0,0,0,596.82,147.17Z" style="fill:#fff"/><path d="M603,140.84v2.94h0a1.83,1.83,0,0,1,1.81-.9,2.39,2.39,0,0,1,1.9.82,3.24,3.24,0,0,1,.71,2.17,3.18,3.18,0,0,1-.7,2.15,2.39,2.39,0,0,1-1.89.81,2.51,2.51,0,0,1-1-.22,1.74,1.74,0,0,1-.8-.67h0v.76h-.93v-7.86Zm0,5a2.45,2.45,0,0,0,.46,1.57,1.62,1.62,0,0,0,1.33.58,1.48,1.48,0,0,0,1.25-.57,2.61,2.61,0,0,0,.45-1.63,2.28,2.28,0,0,0-.48-1.51,1.59,1.59,0,0,0-1.29-.59,1.54,1.54,0,0,0-1.26.59A2.42,2.42,0,0,0,603,145.85Z" style="fill:#fff"/><path d="M609.52,140.84V142h-.94v-1.15Zm0,2.17v5.69h-.94V143Z" style="fill:#fff"/><path d="M612,140.84v7.86H611v-7.86Z" style="fill:#fff"/><path d="M614.38,140.84V142h-.93v-1.15Zm0,2.17v5.69h-.93V143Z" style="fill:#fff"/><path d="M617.12,141.31V143h1.13v.83h-1.13v3.56a.55.55,0,0,0,.1.36c.07.08.23.11.5.11h.53v.83h-.76a1.59,1.59,0,0,1-1-.24,1.24,1.24,0,0,1-.29-1v-3.67h-1V143h1v-1.7Z" style="fill:#fff"/><path d="M619.72,143l1.66,4.65h0L623,143h1l-2.41,6.29a3.93,3.93,0,0,1-.74,1.35,1.36,1.36,0,0,1-1,.32,2.08,2.08,0,0,1-.65-.09V150a1.92,1.92,0,0,0,.55.13.79.79,0,0,0,.79-.57l.36-.92L618.67,143Z" style="fill:#fff"/><path d="M393.5,140.66a3.46,3.46,0,0,1,2.73,1.16,4.77,4.77,0,0,1,0,5.92,3.79,3.79,0,0,1-5.43,0,4.27,4.27,0,0,1-1-3,4.39,4.39,0,0,1,1-2.94A3.43,3.43,0,0,1,393.5,140.66Zm-2.71,4.11a3.58,3.58,0,0,0,.74,2.34,2.64,2.64,0,0,0,3.94,0,3.56,3.56,0,0,0,.74-2.35,3.64,3.64,0,0,0-.72-2.33,2.44,2.44,0,0,0-2-.9,2.37,2.37,0,0,0-2,.91A3.58,3.58,0,0,0,390.79,144.77Z" style="fill:#fff"/><path d="M398.88,143l1.29,4.65h0l1.14-4.65h1l1.19,4.65h0l1.27-4.65h1l-1.8,5.68h-1l-1.17-4.52h0l-1.14,4.52h-1L397.85,143Z" style="fill:#fff"/><path d="M409.42,142.88c1.3,0,1.95.68,1.95,2v3.79h-.93v-3.89a1.05,1.05,0,0,0-1.16-1.11,1.53,1.53,0,0,0-1.23.49,1.81,1.81,0,0,0-.44,1.26v3.25h-.93V143h.88v.9h0A2,2,0,0,1,409.42,142.88Z" style="fill:#fff"/><path d="M415.13,142.88a2.26,2.26,0,0,1,1.89.87,3.59,3.59,0,0,1,.68,2.27v.11h-4.24v.07a1.77,1.77,0,0,0,.47,1.31,1.68,1.68,0,0,0,1.29.49,1.34,1.34,0,0,0,1.47-1.11h.92a2.31,2.31,0,0,1-.82,1.45,2.52,2.52,0,0,1-1.6.49,2.42,2.42,0,0,1-2-.88,3.37,3.37,0,0,1-.69-2.14,3,3,0,0,1,.76-2.1A2.47,2.47,0,0,1,415.13,142.88Zm1.58,2.43a1.69,1.69,0,0,0-.5-1.15,1.51,1.51,0,0,0-1.14-.46,1.53,1.53,0,0,0-1.1.44,1.76,1.76,0,0,0-.51,1.17Z" style="fill:#fff"/><path d="M421.62,142.88v1a2,2,0,0,0-1.56.55,2.56,2.56,0,0,0-.5,1.74v2.54h-.93V143h.88v1.2h0a2.07,2.07,0,0,1,2-1.33Z" style="fill:#fff"/><path d="M424.2,142.88a2.76,2.76,0,0,1,1.71.44,1.79,1.79,0,0,1,.61,1.34h-.94a.93.93,0,0,0-.4-.71,1.58,1.58,0,0,0-.91-.24,1.8,1.8,0,0,0-.88.19.58.58,0,0,0-.33.54.6.6,0,0,0,.29.51,2.46,2.46,0,0,0,.86.32l.88.2a2.85,2.85,0,0,1,1.25.56,1.25,1.25,0,0,1,.43,1,1.56,1.56,0,0,1-.65,1.32,3,3,0,0,1-1.76.47,2.82,2.82,0,0,1-1.73-.48,1.82,1.82,0,0,1-.68-1.45h.94a1,1,0,0,0,.41.82,1.9,1.9,0,0,0,1.11.28c.91,0,1.37-.28,1.37-.84a.69.69,0,0,0-.33-.6,5.41,5.41,0,0,0-1.43-.45,3.46,3.46,0,0,1-1.5-.58,1.31,1.31,0,0,1-.44-1,1.42,1.42,0,0,1,.57-1.17A2.5,2.5,0,0,1,424.2,142.88Z" style="fill:#fff"/><path d="M428.73,140.84v3h0a1.46,1.46,0,0,1,.69-.72,2.37,2.37,0,0,1,1.1-.25c1.3,0,1.95.68,1.95,2v3.79h-.93v-3.89a1.07,1.07,0,0,0-1.16-1.11,1.55,1.55,0,0,0-1.23.49,1.81,1.81,0,0,0-.44,1.26v3.25h-.93v-7.86Z" style="fill:#fff"/><path d="M434.88,140.84V142H434v-1.15Zm0,2.17v5.69H434V143Z" style="fill:#fff"/><path d="M439.13,142.88a2.35,2.35,0,0,1,1.9.82,3.2,3.2,0,0,1,.71,2.17A3.14,3.14,0,0,1,441,148a2.35,2.35,0,0,1-1.88.82,2.48,2.48,0,0,1-1-.22,1.64,1.64,0,0,1-.8-.67h0v2.94h-.93V143h.93v.77h0A1.82,1.82,0,0,1,439.13,142.88Zm-1.87,3a2.45,2.45,0,0,0,.47,1.57,1.59,1.59,0,0,0,1.32.58,1.51,1.51,0,0,0,1.26-.57,2.68,2.68,0,0,0,.44-1.63,2.28,2.28,0,0,0-.48-1.51,1.59,1.59,0,0,0-1.29-.59,1.53,1.53,0,0,0-1.25.57A2.46,2.46,0,0,0,437.26,145.85Z" style="fill:#fff"/><path d="M566.85,216v.88h-2.61v7h-1v-7h-2.61V216Z" style="fill:#fff"/><path d="M568.67,218c1.41,0,2.12.51,2.12,1.53v3.28c0,.21.1.32.3.32a.71.71,0,0,0,.28-.06v.73a1.36,1.36,0,0,1-.67.15c-.52,0-.79-.29-.79-.88a2.46,2.46,0,0,1-2,.88,2.07,2.07,0,0,1-1.38-.41,1.45,1.45,0,0,1-.5-1.18,1.55,1.55,0,0,1,.5-1.21,4.6,4.6,0,0,1,2.29-.68,1.86,1.86,0,0,0,.83-.24.54.54,0,0,0,.21-.47q0-.93-1.26-.93a1.75,1.75,0,0,0-1,.26,1.05,1.05,0,0,0-.38.82h-.93C566.33,218.63,567.14,218,568.67,218ZM567,222.28a.73.73,0,0,0,.28.62,1.29,1.29,0,0,0,.82.22,2,2,0,0,0,1.24-.37,1.1,1.1,0,0,0,.49-.9v-1a1.65,1.65,0,0,1-.66.23l-1,.14a1.76,1.76,0,0,0-.92.34A.83.83,0,0,0,567,222.28Z" style="fill:#fff"/><path d="M573.22,216v7.85h-.93V216Z" style="fill:#fff"/><path d="M577,218a2.28,2.28,0,0,1,1.89.87,3.61,3.61,0,0,1,.67,2.28v.11h-4.24v.07a1.83,1.83,0,0,0,.47,1.31,1.72,1.72,0,0,0,1.3.49,1.34,1.34,0,0,0,1.47-1.11h.92a2.32,2.32,0,0,1-.83,1.45,2.56,2.56,0,0,1-1.6.48,2.4,2.4,0,0,1-2-.88,3.27,3.27,0,0,1-.7-2.13,3,3,0,0,1,.76-2.1A2.47,2.47,0,0,1,577,218Zm1.58,2.43a1.72,1.72,0,0,0-.5-1.14,1.54,1.54,0,0,0-1.15-.46,1.5,1.5,0,0,0-1.09.43,1.82,1.82,0,0,0-.52,1.17Z" style="fill:#fff"/><path d="M583.3,218q2,0,2,2v3.78h-.93v-3.88a1.09,1.09,0,0,0-.3-.79,1.11,1.11,0,0,0-.86-.32,1.58,1.58,0,0,0-1.24.48,1.89,1.89,0,0,0-.43,1.27v3.24h-.93v-5.68h.88v.9h0A2,2,0,0,1,583.3,218Z" style="fill:#fff"/><path d="M588,216.42v1.71h1.13V219H588v3.57a.53.53,0,0,0,.1.36.72.72,0,0,0,.49.11h.54v.82h-.77a1.61,1.61,0,0,1-1-.24,1.22,1.22,0,0,1-.28-.95V219h-1v-.82h1v-1.71Z" style="fill:#fff"/><path d="M425.42,215.77a3.42,3.42,0,0,1,2.18.69,2.78,2.78,0,0,1,1,1.86h-1a2.05,2.05,0,0,0-.75-1.24,2.3,2.3,0,0,0-1.44-.43,2.42,2.42,0,0,0-1.92.86,3.45,3.45,0,0,0-.74,2.32,3.71,3.71,0,0,0,.72,2.42,2.37,2.37,0,0,0,1.95.87,2.09,2.09,0,0,0,1.59-.63,2.57,2.57,0,0,0,.67-1.64h1a3.56,3.56,0,0,1-1.05,2.34,3.75,3.75,0,0,1-5-.29,5,5,0,0,1,0-6A3.44,3.44,0,0,1,425.42,215.77Z" style="fill:#fff"/><path d="M432.18,218c1.42,0,2.12.51,2.12,1.53v3.28c0,.21.1.32.3.32a.71.71,0,0,0,.28-.06v.73a1.36,1.36,0,0,1-.67.15c-.52,0-.79-.29-.79-.88a2.46,2.46,0,0,1-2,.88,2.07,2.07,0,0,1-1.38-.41,1.45,1.45,0,0,1-.5-1.18,1.55,1.55,0,0,1,.5-1.21,4.64,4.64,0,0,1,2.29-.68,1.86,1.86,0,0,0,.83-.24.54.54,0,0,0,.21-.47q0-.93-1.26-.93a1.75,1.75,0,0,0-1,.26,1.05,1.05,0,0,0-.38.82h-.93C429.85,218.63,430.65,218,432.18,218Zm-1.64,4.29a.73.73,0,0,0,.28.62,1.33,1.33,0,0,0,.82.22,2,2,0,0,0,1.24-.37,1.1,1.1,0,0,0,.49-.9v-1a1.65,1.65,0,0,1-.66.23l-.95.14a1.76,1.76,0,0,0-.92.34A.83.83,0,0,0,430.54,222.28Z" style="fill:#fff"/><path d="M438.54,218a2.4,2.4,0,0,1,1.91.82,3.23,3.23,0,0,1,.7,2.18,3.15,3.15,0,0,1-.7,2.14,2.37,2.37,0,0,1-1.88.81,2.64,2.64,0,0,1-1-.21,1.73,1.73,0,0,1-.81-.68h0V226h-.93v-7.86h.93v.77h0A1.82,1.82,0,0,1,438.54,218Zm-1.86,3a2.48,2.48,0,0,0,.47,1.58,1.59,1.59,0,0,0,1.32.58,1.46,1.46,0,0,0,1.25-.58,2.56,2.56,0,0,0,.45-1.62,2.33,2.33,0,0,0-.48-1.52,1.58,1.58,0,0,0-1.29-.58,1.53,1.53,0,0,0-1.25.57A2.43,2.43,0,0,0,436.68,221Z" style="fill:#fff"/><path d="M443.24,216v1.14h-.93V216Zm0,2.17v5.68h-.93v-5.68Z" style="fill:#fff"/><path d="M446,216.42v1.71h1.13V219H446v3.57a.53.53,0,0,0,.1.36.72.72,0,0,0,.49.11h.54v.82h-.77a1.61,1.61,0,0,1-1-.24,1.22,1.22,0,0,1-.28-.95V219h-1v-.82h1v-1.71Z" style="fill:#fff"/><path d="M450.46,218c1.41,0,2.12.51,2.12,1.53v3.28c0,.21.1.32.3.32a.71.71,0,0,0,.28-.06v.73a1.38,1.38,0,0,1-.67.15c-.52,0-.79-.29-.79-.88a2.47,2.47,0,0,1-2,.88,2.07,2.07,0,0,1-1.38-.41,1.45,1.45,0,0,1-.5-1.18,1.58,1.58,0,0,1,.49-1.21,4.69,4.69,0,0,1,2.3-.68,1.77,1.77,0,0,0,.82-.24.52.52,0,0,0,.22-.47q0-.93-1.26-.93a1.75,1.75,0,0,0-1,.26,1,1,0,0,0-.38.82h-.93C448.12,218.63,448.93,218,450.46,218Zm-1.64,4.29a.73.73,0,0,0,.28.62,1.28,1.28,0,0,0,.81.22,2,2,0,0,0,1.25-.37,1.12,1.12,0,0,0,.49-.9v-1a1.65,1.65,0,0,1-.66.23l-.95.14a1.83,1.83,0,0,0-.93.34A.85.85,0,0,0,448.82,222.28Z" style="fill:#fff"/><path d="M455,216v7.85h-.93V216Z" style="fill:#fff"/><path d="M489.85,243.94a2.51,2.51,0,0,1,1.7.56,1.9,1.9,0,0,1,.63,1.5,1.83,1.83,0,0,1-1.36,2v0a1.22,1.22,0,0,1,.89.56,3.52,3.52,0,0,1,.31,1.5,4.58,4.58,0,0,0,.12,1.07,1.72,1.72,0,0,0,.32.65h-1.17a.72.72,0,0,1-.12-.25c0-.09,0-.2-.06-.35l-.05-.86a3.13,3.13,0,0,0-.29-1.32,1.07,1.07,0,0,0-1-.57h-2.58v3.35h-1v-7.85Zm-.46,3.62c1.17,0,1.75-.47,1.75-1.4a1.22,1.22,0,0,0-1.35-1.34h-2.63v2.74Z" style="fill:#fff"/><path d="M494.46,243.94v1.14h-.93v-1.14Zm0,2.17v5.68h-.93v-5.68Z" style="fill:#fff"/><path d="M497.8,246a2.68,2.68,0,0,1,1.7.45,1.77,1.77,0,0,1,.61,1.34h-.93a.91.91,0,0,0-.4-.71,1.61,1.61,0,0,0-.92-.24,1.72,1.72,0,0,0-.88.19.57.57,0,0,0-.32.54.59.59,0,0,0,.28.51,2.66,2.66,0,0,0,.87.32l.88.2a3,3,0,0,1,1.25.55,1.3,1.3,0,0,1,.42,1,1.53,1.53,0,0,1-.64,1.32,2.93,2.93,0,0,1-1.77.48,2.79,2.79,0,0,1-1.72-.48,1.79,1.79,0,0,1-.68-1.45h.93a1,1,0,0,0,.42.81,1.78,1.78,0,0,0,1.1.29c.92,0,1.38-.28,1.38-.85a.69.69,0,0,0-.34-.59,4.64,4.64,0,0,0-1.43-.45,3.46,3.46,0,0,1-1.49-.58,1.28,1.28,0,0,1-.45-1,1.4,1.4,0,0,1,.58-1.17A2.44,2.44,0,0,1,497.8,246Z" style="fill:#fff"/><path d="M502.38,243.94v4.65l2.59-2.48h1.25L504,248.17l2.41,3.62H505.2l-1.94-3-.88.82v2.15h-.93v-7.85Z" style="fill:#fff"/><path d="M512.46,246c1.41,0,2.11.51,2.11,1.53v3.28c0,.21.1.32.3.32a.92.92,0,0,0,.28,0v.72a1.34,1.34,0,0,1-.66.16c-.53,0-.79-.3-.79-.88a2.52,2.52,0,0,1-2,.88,2.11,2.11,0,0,1-1.38-.42,1.44,1.44,0,0,1-.49-1.18,1.55,1.55,0,0,1,.49-1.21,4.64,4.64,0,0,1,2.29-.68,1.82,1.82,0,0,0,.83-.24.54.54,0,0,0,.21-.47q0-.93-1.26-.93a1.77,1.77,0,0,0-1,.26,1,1,0,0,0-.37.82H510C510.12,246.61,510.92,246,512.46,246Zm-1.65,4.29a.74.74,0,0,0,.29.62,1.28,1.28,0,0,0,.81.22,2,2,0,0,0,1.24-.37,1.09,1.09,0,0,0,.49-.89v-1a1.65,1.65,0,0,1-.66.23l-1,.14a1.79,1.79,0,0,0-.92.34A.83.83,0,0,0,510.81,250.26Z" style="fill:#fff"/><path d="M518.76,246q1.95,0,2,2v3.78h-.93v-3.88a1.05,1.05,0,0,0-1.16-1.11,1.56,1.56,0,0,0-1.23.48,1.85,1.85,0,0,0-.44,1.27v3.24H516v-5.68h.88v.9h0A2,2,0,0,1,518.76,246Z" style="fill:#fff"/><path d="M527.18,243.94v7.85h-.93V251h0a1.43,1.43,0,0,1-.7.67,2.45,2.45,0,0,1-1.11.24,2.39,2.39,0,0,1-1.89-.83,3.64,3.64,0,0,1,0-4.32,2.34,2.34,0,0,1,1.88-.81,2.49,2.49,0,0,1,1.07.24,1.67,1.67,0,0,1,.77.66h0v-2.93ZM522.8,249a2.33,2.33,0,0,0,.48,1.52,1.67,1.67,0,0,0,2.54,0,2.42,2.42,0,0,0,.46-1.55,2.48,2.48,0,0,0-.46-1.57,1.61,1.61,0,0,0-1.33-.59,1.46,1.46,0,0,0-1.25.59A2.59,2.59,0,0,0,522.8,249Z" style="fill:#fff"/><path d="M485,255.5a2.51,2.51,0,0,1,1.7.56,1.91,1.91,0,0,1,.63,1.5,1.83,1.83,0,0,1-1.36,2v0a1.22,1.22,0,0,1,.89.56,3.37,3.37,0,0,1,.31,1.5,4.66,4.66,0,0,0,.13,1.08,1.74,1.74,0,0,0,.31.64h-1.16a.6.6,0,0,1-.13-.25c0-.09,0-.2-.06-.35l0-.86a3.37,3.37,0,0,0-.3-1.32,1.07,1.07,0,0,0-1-.57h-2.58v3.35h-1V255.5Zm-.46,3.62c1.17,0,1.75-.47,1.75-1.4a1.33,1.33,0,0,0-.35-1,1.37,1.37,0,0,0-1-.35h-2.63v2.74Z" style="fill:#fff"/><path d="M491,257.54a2.27,2.27,0,0,1,1.88.86,3.62,3.62,0,0,1,.68,2.28v.11h-4.24v.07a1.77,1.77,0,0,0,.47,1.31,1.68,1.68,0,0,0,1.29.49,1.34,1.34,0,0,0,1.47-1.11h.92a2.31,2.31,0,0,1-.82,1.45,2.58,2.58,0,0,1-1.6.49,2.45,2.45,0,0,1-2-.88,3.37,3.37,0,0,1-.69-2.14,3,3,0,0,1,.76-2.1A2.44,2.44,0,0,1,491,257.54Zm1.57,2.43a1.67,1.67,0,0,0-.49-1.15,1.65,1.65,0,0,0-2.25,0,1.79,1.79,0,0,0-.51,1.18Z" style="fill:#fff"/><path d="M496.8,257.54a1.82,1.82,0,0,1,1.7.94h0v-.81h.88v5.26c0,1.82-.88,2.73-2.62,2.73a2.82,2.82,0,0,1-1.69-.45,1.56,1.56,0,0,1-.67-1.22h.93a.81.81,0,0,0,.44.67,1.94,1.94,0,0,0,1,.26c1.13,0,1.7-.73,1.7-2.18v-.35h0a1.74,1.74,0,0,1-.7.75,2,2,0,0,1-1.07.28,2.31,2.31,0,0,1-1.84-.79,3.08,3.08,0,0,1-.69-2.09,3.22,3.22,0,0,1,.7-2.17A2.33,2.33,0,0,1,496.8,257.54Zm-1.62,2.89a2.64,2.64,0,0,0,.41,1.58,1.39,1.39,0,0,0,1.19.59A1.46,1.46,0,0,0,498,262a2.53,2.53,0,0,0,.47-1.59,2.43,2.43,0,0,0-.43-1.48,1.44,1.44,0,0,0-1.2-.56,1.48,1.48,0,0,0-1.23.57A2.39,2.39,0,0,0,495.18,260.43Z" style="fill:#fff"/><path d="M501.72,257.67v3.87a1.07,1.07,0,0,0,1.15,1.12,1.58,1.58,0,0,0,1.25-.48,1.84,1.84,0,0,0,.43-1.27v-3.24h.93v5.68h-.87v-.9h0a2,2,0,0,1-1.84,1c-1.3,0-1.95-.68-1.95-2v-3.79Z" style="fill:#fff"/><path d="M507.87,255.5v7.85h-.93V255.5Z" style="fill:#fff"/><path d="M511.65,257.54c1.41,0,2.11.5,2.11,1.52v3.28c0,.22.1.32.3.32a.92.92,0,0,0,.28-.05v.72a1.26,1.26,0,0,1-.67.16c-.52,0-.79-.3-.79-.88a2.49,2.49,0,0,1-2,.88,2.07,2.07,0,0,1-1.38-.42,1.43,1.43,0,0,1-.5-1.18,1.57,1.57,0,0,1,.5-1.21,4.64,4.64,0,0,1,2.29-.68,1.86,1.86,0,0,0,.83-.24.54.54,0,0,0,.21-.46c0-.63-.42-.94-1.26-.94a1.75,1.75,0,0,0-1,.26,1.05,1.05,0,0,0-.38.82h-.93C509.31,258.17,510.11,257.54,511.65,257.54ZM510,261.83a.74.74,0,0,0,.29.61,1.28,1.28,0,0,0,.81.22,2,2,0,0,0,1.24-.37,1.09,1.09,0,0,0,.49-.89v-1a1.51,1.51,0,0,1-.66.23l-.95.14a1.76,1.76,0,0,0-.92.34A.84.84,0,0,0,510,261.83Z" style="fill:#fff"/><path d="M516.5,256v1.71h1.13v.82H516.5v3.57a.55.55,0,0,0,.1.36.74.74,0,0,0,.49.11h.54v.82h-.77a1.57,1.57,0,0,1-1-.24,1.2,1.2,0,0,1-.29-.94v-3.68h-1v-.82h1V256Z" style="fill:#fff"/><path d="M519.65,255.5v1.14h-.93V255.5Zm0,2.17v5.68h-.93v-5.68Z" style="fill:#fff"/><path d="M523.54,257.54a2.58,2.58,0,0,1,2,.81,3.49,3.49,0,0,1,0,4.3,2.53,2.53,0,0,1-2,.84,2.6,2.6,0,0,1-2-.81,3.05,3.05,0,0,1-.75-2.16,3.13,3.13,0,0,1,.74-2.18A2.57,2.57,0,0,1,523.54,257.54Zm-1.76,3a2.36,2.36,0,0,0,.49,1.55,1.66,1.66,0,0,0,2.54,0,2.33,2.33,0,0,0,.5-1.55,2.37,2.37,0,0,0-.5-1.56,1.57,1.57,0,0,0-1.28-.6,1.54,1.54,0,0,0-1.25.61A2.31,2.31,0,0,0,521.78,260.52Z" style="fill:#fff"/><path d="M530.13,257.54c1.3,0,2,.67,2,2v3.78h-.93v-3.88a1.05,1.05,0,0,0-1.16-1.11,1.56,1.56,0,0,0-1.23.48,1.85,1.85,0,0,0-.44,1.27v3.24h-.93v-5.68h.88v.9h0A2,2,0,0,1,530.13,257.54Z" style="fill:#fff"/><path d="M132.6,65.78l1.53,6.54h0l1.76-6.54H137l1.73,6.54h0l1.59-6.54h1l-2.09,7.86h-1.09L136.46,67h0l-1.81,6.6h-1.08l-2-7.86Z" style="fill:#fff"/><path d="M144,67.82a2.25,2.25,0,0,1,1.88.87,3.53,3.53,0,0,1,.68,2.27v.11h-4.24v.07a1.81,1.81,0,0,0,.47,1.31,1.72,1.72,0,0,0,1.3.49,1.34,1.34,0,0,0,1.47-1.11h.92a2.32,2.32,0,0,1-.83,1.45,2.5,2.5,0,0,1-1.6.49,2.43,2.43,0,0,1-2-.88,3.37,3.37,0,0,1-.69-2.14,3,3,0,0,1,.76-2.1A2.48,2.48,0,0,1,144,67.82Zm1.58,2.43a1.74,1.74,0,0,0-.5-1.15,1.54,1.54,0,0,0-1.15-.46,1.51,1.51,0,0,0-1.09.44,1.77,1.77,0,0,0-.52,1.17Z" style="fill:#fff"/><path d="M149.84,67.82c1.41,0,2.12.51,2.12,1.53v3.27c0,.22.1.32.3.32a.69.69,0,0,0,.28,0v.72a1.26,1.26,0,0,1-.67.16c-.52,0-.79-.29-.79-.88a2.46,2.46,0,0,1-2,.88,2.12,2.12,0,0,1-1.38-.41,1.47,1.47,0,0,1-.5-1.19,1.57,1.57,0,0,1,.5-1.21,4.71,4.71,0,0,1,2.29-.68,2,2,0,0,0,.83-.23.57.57,0,0,0,.21-.47c0-.63-.42-.94-1.26-.94a1.75,1.75,0,0,0-1,.26,1.07,1.07,0,0,0-.38.82h-.93C147.5,68.45,148.31,67.82,149.84,67.82Zm-1.64,4.29a.72.72,0,0,0,.28.61,1.29,1.29,0,0,0,.82.22,2,2,0,0,0,1.24-.37,1.09,1.09,0,0,0,.49-.89v-1a1.51,1.51,0,0,1-.66.23l-1,.14a1.76,1.76,0,0,0-.92.34A.85.85,0,0,0,148.2,72.11Z" style="fill:#fff"/><path d="M154.39,65.78v7.86h-.93V65.78Z" style="fill:#fff"/><path d="M157.14,66.24V68h1.12v.82h-1.12v3.57a.56.56,0,0,0,.09.36.75.75,0,0,0,.5.11h.53v.83h-.76a1.52,1.52,0,0,1-1-.25,1.2,1.2,0,0,1-.29-.94V68.77h-1V68h1V66.24Z" style="fill:#fff"/><path d="M160.23,65.78v3h0a1.42,1.42,0,0,1,.69-.72,2.34,2.34,0,0,1,1.1-.25c1.3,0,2,.68,2,2v3.79h-.93V69.75a1.11,1.11,0,0,0-.3-.79,1.15,1.15,0,0,0-.87-.32,1.54,1.54,0,0,0-1.22.49,1.76,1.76,0,0,0-.44,1.26v3.25h-.94V65.78Z" style="fill:#fff"/><path d="M103.64,248a2.45,2.45,0,0,1,1.71.59,2.19,2.19,0,0,1,.64,1.73,2.3,2.3,0,0,1-.61,1.72,2.28,2.28,0,0,1-1.67.6H101.2v3.22h-1V248Zm-.29,3.76a1.78,1.78,0,0,0,1.17-.35,1.34,1.34,0,0,0,.43-1.09c0-1-.56-1.44-1.67-1.44H101.2v2.88Z" style="fill:#fff"/><path d="M108,250.21v3.87a1.07,1.07,0,0,0,1.15,1.12,1.58,1.58,0,0,0,1.25-.48,1.81,1.81,0,0,0,.43-1.27v-3.24h.93v5.69h-.88V255h0a2,2,0,0,1-1.84,1c-1.3,0-2-.68-2-2v-3.79Z" style="fill:#fff"/><path d="M116.15,250.08v1a2,2,0,0,0-1.55.55,2.56,2.56,0,0,0-.5,1.74v2.54h-.93v-5.69h.88v1.2h0a2.07,2.07,0,0,1,2-1.33Z" style="fill:#fff"/><path d="M119.65,250.08a2.37,2.37,0,0,1,1.91.82,3.2,3.2,0,0,1,.7,2.17,3.09,3.09,0,0,1-.71,2.14,2.34,2.34,0,0,1-1.88.82,2.51,2.51,0,0,1-1-.22,1.74,1.74,0,0,1-.8-.67h0v2.93h-.93v-7.86h.93V251h0A1.82,1.82,0,0,1,119.65,250.08Zm-1.86,3a2.45,2.45,0,0,0,.46,1.57,1.59,1.59,0,0,0,1.32.58,1.5,1.5,0,0,0,1.26-.57,2.61,2.61,0,0,0,.44-1.63,2.27,2.27,0,0,0-.47-1.51,1.59,1.59,0,0,0-1.29-.59,1.54,1.54,0,0,0-1.26.57A2.46,2.46,0,0,0,117.79,253.05Z" style="fill:#fff"/><path d="M125.8,250.08a2.58,2.58,0,0,1,2,.81,3.46,3.46,0,0,1,0,4.3,2.53,2.53,0,0,1-2,.84,2.6,2.6,0,0,1-2-.81,3.05,3.05,0,0,1-.75-2.16,3.09,3.09,0,0,1,.74-2.17A2.58,2.58,0,0,1,125.8,250.08Zm-1.76,3a2.34,2.34,0,0,0,.49,1.55,1.56,1.56,0,0,0,1.27.59,1.59,1.59,0,0,0,1.27-.58,2.68,2.68,0,0,0,0-3.12,1.56,1.56,0,0,0-1.28-.6,1.54,1.54,0,0,0-1.25.61A2.31,2.31,0,0,0,124,253.06Z" style="fill:#fff"/><path d="M131.54,250.08a2.72,2.72,0,0,1,1.7.44,1.79,1.79,0,0,1,.61,1.34h-.93a.93.93,0,0,0-.4-.71,1.61,1.61,0,0,0-.92-.24,1.72,1.72,0,0,0-.88.19.57.57,0,0,0-.32.54.59.59,0,0,0,.28.51,2.45,2.45,0,0,0,.87.32l.88.2a3,3,0,0,1,1.25.56,1.27,1.27,0,0,1,.42,1,1.55,1.55,0,0,1-.64,1.32,3,3,0,0,1-1.77.47,2.79,2.79,0,0,1-1.72-.48,1.82,1.82,0,0,1-.68-1.45h.93a1,1,0,0,0,.42.82,1.86,1.86,0,0,0,1.11.28c.91,0,1.37-.28,1.37-.84a.7.7,0,0,0-.34-.6,5.28,5.28,0,0,0-1.43-.45,3.46,3.46,0,0,1-1.49-.58,1.28,1.28,0,0,1-.45-1,1.4,1.4,0,0,1,.58-1.17A2.5,2.5,0,0,1,131.54,250.08Z" style="fill:#fff"/><path d="M137.49,250.08a2.27,2.27,0,0,1,1.89.87,3.59,3.59,0,0,1,.68,2.27v.11h-4.25v.07a1.78,1.78,0,0,0,.48,1.31,1.68,1.68,0,0,0,1.29.49,1.34,1.34,0,0,0,1.47-1.11H140a2.31,2.31,0,0,1-.82,1.45,2.54,2.54,0,0,1-1.6.49,2.41,2.41,0,0,1-2-.88,3.37,3.37,0,0,1-.69-2.14,3,3,0,0,1,.75-2.1A2.49,2.49,0,0,1,137.49,250.08Zm1.58,2.43a1.74,1.74,0,0,0-.5-1.15,1.62,1.62,0,0,0-2.24,0,1.82,1.82,0,0,0-.52,1.17Z" style="fill:#fff"/><path d="M146.4,250.08c1.41,0,2.11.51,2.11,1.53v3.27c0,.22.1.32.3.32a.69.69,0,0,0,.28,0v.72a1.26,1.26,0,0,1-.67.16c-.52,0-.79-.29-.79-.88a2.46,2.46,0,0,1-2,.88,2.12,2.12,0,0,1-1.38-.41,1.47,1.47,0,0,1-.5-1.19,1.57,1.57,0,0,1,.5-1.21,4.75,4.75,0,0,1,2.29-.68,2,2,0,0,0,.83-.23.57.57,0,0,0,.21-.47c0-.63-.42-.94-1.26-.94a1.75,1.75,0,0,0-1,.26,1.07,1.07,0,0,0-.38.82H144C144.06,250.71,144.86,250.08,146.4,250.08Zm-1.65,4.29a.72.72,0,0,0,.29.61,1.28,1.28,0,0,0,.81.22,2,2,0,0,0,1.24-.37,1.09,1.09,0,0,0,.49-.89v-1a1.51,1.51,0,0,1-.66.23l-.95.14a1.76,1.76,0,0,0-.92.34A.85.85,0,0,0,144.75,254.37Z" style="fill:#fff"/><path d="M152.7,250.08c1.3,0,2,.68,2,2v3.79h-.93V252a1.07,1.07,0,0,0-1.16-1.11,1.56,1.56,0,0,0-1.24.49,1.8,1.8,0,0,0-.43,1.26v3.25H150v-5.69h.88v.9h0A2,2,0,0,1,152.7,250.08Z" style="fill:#fff"/><path d="M161.12,248v7.86h-.93v-.77h0a1.52,1.52,0,0,1-.7.67,2.59,2.59,0,0,1-1.11.23,2.39,2.39,0,0,1-1.89-.83,3.65,3.65,0,0,1,0-4.31,2.38,2.38,0,0,1,1.89-.81,2.44,2.44,0,0,1,1.06.23,1.69,1.69,0,0,1,.78.66h0V248Zm-4.38,5.06a2.31,2.31,0,0,0,.48,1.52,1.68,1.68,0,0,0,2.54,0,2.47,2.47,0,0,0,.46-1.56,2.43,2.43,0,0,0-.46-1.56,1.6,1.6,0,0,0-1.34-.6,1.48,1.48,0,0,0-1.25.59A2.65,2.65,0,0,0,156.74,253.1Z" style="fill:#fff"/><path d="M166,248l2.24,6.81h0l2.26-6.81h1.09l-2.79,7.86h-1.18L164.89,248Z" style="fill:#fff"/><path d="M174,250.08c1.41,0,2.11.51,2.11,1.53v3.27c0,.22.1.32.3.32a.69.69,0,0,0,.28,0v.72a1.24,1.24,0,0,1-.66.16c-.53,0-.79-.29-.79-.88a2.49,2.49,0,0,1-2,.88,2.16,2.16,0,0,1-1.38-.41,1.46,1.46,0,0,1-.49-1.19,1.56,1.56,0,0,1,.49-1.21,4.75,4.75,0,0,1,2.29-.68,2,2,0,0,0,.83-.23.57.57,0,0,0,.21-.47c0-.63-.42-.94-1.26-.94a1.77,1.77,0,0,0-1,.26,1,1,0,0,0-.37.82h-.94C171.69,250.71,172.49,250.08,174,250.08Zm-1.65,4.29a.72.72,0,0,0,.29.61,1.28,1.28,0,0,0,.81.22,2,2,0,0,0,1.24-.37,1.09,1.09,0,0,0,.49-.89v-1a1.51,1.51,0,0,1-.66.23l-1,.14a1.79,1.79,0,0,0-.92.34A.85.85,0,0,0,172.38,254.37Z" style="fill:#fff"/><path d="M178.58,248v7.86h-.93V248Z" style="fill:#fff"/><path d="M181,250.21v3.87a1.13,1.13,0,0,0,.3.81,1.14,1.14,0,0,0,.85.31,1.59,1.59,0,0,0,1.25-.48,1.86,1.86,0,0,0,.43-1.27v-3.24h.93v5.69h-.88V255h0a2,2,0,0,1-1.84,1,1.77,1.77,0,0,1-2-2v-3.79Z" style="fill:#fff"/><path d="M188.48,250.08a2.25,2.25,0,0,1,1.88.87,3.53,3.53,0,0,1,.68,2.27v.11H186.8v.07a1.81,1.81,0,0,0,.47,1.31,1.72,1.72,0,0,0,1.3.49,1.34,1.34,0,0,0,1.47-1.11H191a2.32,2.32,0,0,1-.83,1.45,2.5,2.5,0,0,1-1.6.49,2.42,2.42,0,0,1-2-.88,3.37,3.37,0,0,1-.69-2.14,3,3,0,0,1,.76-2.1A2.48,2.48,0,0,1,188.48,250.08Zm1.58,2.43a1.74,1.74,0,0,0-.5-1.15,1.55,1.55,0,0,0-1.15-.46,1.51,1.51,0,0,0-1.09.44,1.77,1.77,0,0,0-.52,1.17Z" style="fill:#fff"/><path d="M193.9,250.08a2.74,2.74,0,0,1,1.7.44,1.79,1.79,0,0,1,.61,1.34h-.93a1,1,0,0,0-.4-.71,1.63,1.63,0,0,0-.92-.24,1.69,1.69,0,0,0-.88.19.58.58,0,0,0-.33.54.6.6,0,0,0,.29.51,2.45,2.45,0,0,0,.87.32l.87.2a2.85,2.85,0,0,1,1.25.56,1.25,1.25,0,0,1,.43,1,1.53,1.53,0,0,1-.65,1.32,3,3,0,0,1-1.76.47,2.77,2.77,0,0,1-1.72-.48,1.79,1.79,0,0,1-.68-1.45h.93a1,1,0,0,0,.42.82,1.85,1.85,0,0,0,1.1.28c.92,0,1.37-.28,1.37-.84a.69.69,0,0,0-.33-.6,5.28,5.28,0,0,0-1.43-.45,3.41,3.41,0,0,1-1.49-.58,1.28,1.28,0,0,1-.45-1,1.42,1.42,0,0,1,.57-1.17A2.53,2.53,0,0,1,193.9,250.08Z" style="fill:#fff"/><path d="M38.86,164.18a3.38,3.38,0,0,1,2.17.69,2.83,2.83,0,0,1,1,1.86H41a2.05,2.05,0,0,0-.75-1.24,2.34,2.34,0,0,0-1.44-.43,2.42,2.42,0,0,0-1.92.86,3.45,3.45,0,0,0-.74,2.32,3.72,3.72,0,0,0,.71,2.41,2.38,2.38,0,0,0,2,.88,2.12,2.12,0,0,0,1.59-.63,2.57,2.57,0,0,0,.67-1.64h1a3.56,3.56,0,0,1-1,2.34,3.75,3.75,0,0,1-5-.29,5,5,0,0,1,0-6A3.43,3.43,0,0,1,38.86,164.18Z" style="fill:#fff"/><path d="M45.74,166.4a2.55,2.55,0,0,1,2,.82,3,3,0,0,1,.74,2.16,3.08,3.08,0,0,1-.74,2.14,2.53,2.53,0,0,1-2,.83,2.63,2.63,0,0,1-2-.8,3.06,3.06,0,0,1-.75-2.17,3.12,3.12,0,0,1,.74-2.17A2.58,2.58,0,0,1,45.74,166.4Zm-1.76,3a2.37,2.37,0,0,0,.49,1.56,1.66,1.66,0,0,0,2.54,0,2.34,2.34,0,0,0,.5-1.56,2.36,2.36,0,0,0-.5-1.55,1.63,1.63,0,0,0-2.53,0A2.33,2.33,0,0,0,44,169.38Z" style="fill:#fff"/><path d="M52.33,166.4q2,0,2,2v3.78h-.93v-3.88a1.13,1.13,0,0,0-.29-.79,1.11,1.11,0,0,0-.87-.32,1.56,1.56,0,0,0-1.23.48,1.85,1.85,0,0,0-.44,1.27v3.24h-.93v-5.68h.88v.9h0A2,2,0,0,1,52.33,166.4Z" style="fill:#fff"/><path d="M57,164.83v1.71h1.13v.82H57v3.56a.55.55,0,0,0,.1.37.74.74,0,0,0,.49.11h.54v.82h-.77a1.61,1.61,0,0,1-1-.24,1.22,1.22,0,0,1-.28-.95v-3.67h-1v-.82h1v-1.71Z" style="fill:#fff"/><path d="M60.13,164.37v1.14H59.2v-1.14Zm0,2.17v5.68H59.2v-5.68Z" style="fill:#fff"/><path d="M64.32,166.4q2,0,2,2v3.78h-.93v-3.88a1.09,1.09,0,0,0-.3-.79,1.11,1.11,0,0,0-.87-.32,1.58,1.58,0,0,0-1.23.48,1.84,1.84,0,0,0-.43,1.27v3.24h-.93v-5.68h.87v.9h0A2,2,0,0,1,64.32,166.4Z" style="fill:#fff"/><path d="M68.6,166.54v3.87a1.13,1.13,0,0,0,.31.81,1.18,1.18,0,0,0,.85.31,1.61,1.61,0,0,0,1.25-.48,1.89,1.89,0,0,0,.42-1.27v-3.24h.94v5.68h-.88v-.9h0a2,2,0,0,1-1.85,1c-1.3,0-2-.67-2-2v-3.79Z" style="fill:#fff"/><path d="M74.76,164.37v1.14h-.94v-1.14Zm0,2.17v5.68h-.94v-5.68Z" style="fill:#fff"/><path d="M77.5,164.83v1.71h1.13v.82H77.5v3.56a.55.55,0,0,0,.1.37.72.72,0,0,0,.49.11h.54v.82h-.77a1.61,1.61,0,0,1-1-.24,1.22,1.22,0,0,1-.29-.95v-3.67h-1v-.82h1v-1.71Z" style="fill:#fff"/><path d="M80.1,166.54l1.65,4.65h0l1.59-4.65h1l-2.41,6.29a3.61,3.61,0,0,1-.74,1.34,1.37,1.37,0,0,1-1,.33,1.81,1.81,0,0,1-.65-.1v-.86a2,2,0,0,0,.55.13.78.78,0,0,0,.79-.57l.36-.91L79,166.54Z" style="fill:#fff"/><path d="M210.61,164.18a3.7,3.7,0,0,1,2.29.67,2.84,2.84,0,0,1,1.08,1.94h-1a2,2,0,0,0-.76-1.28,2.56,2.56,0,0,0-1.57-.45,2.39,2.39,0,0,0-2,.9,3.75,3.75,0,0,0-.74,2.43,3.39,3.39,0,0,0,.75,2.24,2.39,2.39,0,0,0,1.94.9,2.53,2.53,0,0,0,1.8-.67,2.34,2.34,0,0,0,.71-1.77V169h-2.5v-.88h3.43v4.13h-.65l-.28-1a2.71,2.71,0,0,1-1.08.87,3.43,3.43,0,0,1-1.43.3,3.48,3.48,0,0,1-2.66-1.14,4,4,0,0,1-1.07-2.82,4.61,4.61,0,0,1,1-3.07A3.35,3.35,0,0,1,210.61,164.18Z" style="fill:#fff"/><path d="M217.88,166.4a2.55,2.55,0,0,1,2,.82,3,3,0,0,1,.74,2.16,3.08,3.08,0,0,1-.74,2.14,2.53,2.53,0,0,1-2,.83,2.63,2.63,0,0,1-2-.8,3.06,3.06,0,0,1-.75-2.17,3.12,3.12,0,0,1,.74-2.17A2.58,2.58,0,0,1,217.88,166.4Zm-1.76,3a2.37,2.37,0,0,0,.49,1.56,1.59,1.59,0,0,0,1.27.59,1.62,1.62,0,0,0,1.27-.59,2.34,2.34,0,0,0,.5-1.56,2.36,2.36,0,0,0-.5-1.55,1.57,1.57,0,0,0-1.28-.6,1.59,1.59,0,0,0-1.26.6A2.38,2.38,0,0,0,216.12,169.38Z" style="fill:#fff"/><path d="M222.22,166.54l1.59,4.74h0l1.55-4.74h1l-2.08,5.68h-1l-2.11-5.68Z" style="fill:#fff"/><path d="M229.57,166.4a2.28,2.28,0,0,1,1.89.87,3.62,3.62,0,0,1,.68,2.28v.11h-4.25v.07a1.83,1.83,0,0,0,.47,1.31,1.72,1.72,0,0,0,1.3.49,1.34,1.34,0,0,0,1.47-1.11h.92a2.3,2.3,0,0,1-.82,1.44,2.55,2.55,0,0,1-1.61.49,2.4,2.4,0,0,1-2-.88,3.33,3.33,0,0,1-.7-2.13,3,3,0,0,1,.76-2.1A2.47,2.47,0,0,1,229.57,166.4Zm1.58,2.43a1.76,1.76,0,0,0-.5-1.15,1.57,1.57,0,0,0-1.15-.45,1.5,1.5,0,0,0-1.09.43,1.82,1.82,0,0,0-.52,1.17Z" style="fill:#fff"/><path d="M236.05,166.4v1a2,2,0,0,0-1.55.56,2.55,2.55,0,0,0-.5,1.73v2.54h-.93v-5.68h.87v1.19h0a2.08,2.08,0,0,1,1.95-1.33Z" style="fill:#fff"/><path d="M239.69,166.4q2,0,1.95,2v3.78h-.93v-3.88a1.09,1.09,0,0,0-.3-.79,1.07,1.07,0,0,0-.86-.32,1.58,1.58,0,0,0-1.24.48,1.84,1.84,0,0,0-.43,1.27v3.24H237v-5.68h.88v.9h0A2,2,0,0,1,239.69,166.4Z" style="fill:#fff"/><path d="M245.37,166.4c1.41,0,2.12.51,2.12,1.53v3.28c0,.21.09.32.29.32a.75.75,0,0,0,.29-.06v.73a1.41,1.41,0,0,1-.67.15c-.53,0-.79-.29-.79-.88a2.48,2.48,0,0,1-2,.88,2.06,2.06,0,0,1-1.37-.41,1.42,1.42,0,0,1-.5-1.18,1.55,1.55,0,0,1,.49-1.21,4.64,4.64,0,0,1,2.29-.68,1.82,1.82,0,0,0,.83-.24.56.56,0,0,0,.22-.47c0-.62-.42-.93-1.27-.93a1.65,1.65,0,0,0-1,.26,1,1,0,0,0-.38.82H243C243,167,243.83,166.4,245.37,166.4Zm-1.64,4.29a.73.73,0,0,0,.28.62,1.28,1.28,0,0,0,.81.22,2.06,2.06,0,0,0,1.25-.37,1.11,1.11,0,0,0,.48-.9v-1a1.55,1.55,0,0,1-.65.23l-1,.14a1.93,1.93,0,0,0-.92.33A.86.86,0,0,0,243.73,170.69Z" style="fill:#fff"/><path d="M251.67,166.4c1.31,0,2,.68,2,2v3.78h-.94v-3.88a1.09,1.09,0,0,0-.29-.79,1.11,1.11,0,0,0-.87-.32,1.58,1.58,0,0,0-1.23.48,1.84,1.84,0,0,0-.43,1.27v3.24h-.94v-5.68h.88v.9h0A2,2,0,0,1,251.67,166.4Z" style="fill:#fff"/><path d="M257.4,166.4a2.75,2.75,0,0,1,1.68.49,2.07,2.07,0,0,1,.76,1.47h-1a1.3,1.3,0,0,0-1.4-1.13,1.56,1.56,0,0,0-1.32.58,2.6,2.6,0,0,0-.45,1.64,2.44,2.44,0,0,0,.44,1.51,1.45,1.45,0,0,0,1.22.57,1.52,1.52,0,0,0,1.07-.36,1.69,1.69,0,0,0,.48-1h1a2.64,2.64,0,0,1-.8,1.64,2.82,2.82,0,0,1-3.64-.2,3,3,0,0,1-.72-2.13,3.27,3.27,0,0,1,.72-2.23A2.49,2.49,0,0,1,257.4,166.4Z" style="fill:#fff"/><path d="M263.28,166.4a2.25,2.25,0,0,1,1.88.87,3.56,3.56,0,0,1,.68,2.28v.11H261.6v.07a1.83,1.83,0,0,0,.47,1.31,1.7,1.7,0,0,0,1.29.49,1.33,1.33,0,0,0,1.47-1.11h.92a2.21,2.21,0,0,1-.82,1.44,2.52,2.52,0,0,1-1.6.49,2.42,2.42,0,0,1-2-.88,3.32,3.32,0,0,1-.69-2.13,3,3,0,0,1,.76-2.1A2.45,2.45,0,0,1,263.28,166.4Zm1.57,2.43a1.71,1.71,0,0,0-.49-1.15,1.58,1.58,0,0,0-1.15-.45,1.52,1.52,0,0,0-1.1.43,1.76,1.76,0,0,0-.51,1.17Z" style="fill:#fff"/><path d="M483.89,156.25l2.33,6.88h0l2.21-6.88h3.08v10h-2.05v-7.08h0L487,166.25h-1.69l-2.44-7h0v7h-2.05v-10Z" style="fill:#231f20"/><path d="M496.58,158.82c2.1,0,3.15.69,3.15,2.05v3.84a3.61,3.61,0,0,0,.25,1.54h-2a3.22,3.22,0,0,1-.14-.7,3.21,3.21,0,0,1-2.42.9,2.67,2.67,0,0,1-1.8-.58,2,2,0,0,1-.66-1.59,1.91,1.91,0,0,1,.63-1.54,4,4,0,0,1,2.33-.73,4.73,4.73,0,0,0,1.52-.32.63.63,0,0,0,.32-.58.91.91,0,0,0-.29-.73,1.64,1.64,0,0,0-1-.23,1.5,1.5,0,0,0-1,.25,1.23,1.23,0,0,0-.38.84h-2a2.21,2.21,0,0,1,1-1.81A4.25,4.25,0,0,1,496.58,158.82Zm-1.65,5.37c0,.62.41.93,1.22.93a1.45,1.45,0,0,0,1.6-1.64v-.77a2.34,2.34,0,0,1-1.2.35,3,3,0,0,0-1.23.34A.86.86,0,0,0,494.93,164.19Z" style="fill:#231f20"/><path d="M505.41,158.82a2.53,2.53,0,0,1,2,.7,3.24,3.24,0,0,1,.62,2.22v4.51h-2v-4.1a2.46,2.46,0,0,0-.28-1.33,1.1,1.1,0,0,0-1-.44,1.37,1.37,0,0,0-1.17.49,2.8,2.8,0,0,0-.36,1.61v3.77h-2V159h1.88v1h0A2.44,2.44,0,0,1,505.41,158.82Z" style="fill:#231f20"/><path d="M512.86,158.82c2.11,0,3.16.69,3.16,2.05v3.84a3.46,3.46,0,0,0,.25,1.54h-2a2.72,2.72,0,0,1-.14-.7,3.25,3.25,0,0,1-2.43.9,2.66,2.66,0,0,1-1.79-.58,2,2,0,0,1-.67-1.59,1.91,1.91,0,0,1,.63-1.54,4.08,4.08,0,0,1,2.33-.73,4.66,4.66,0,0,0,1.52-.32.62.62,0,0,0,.33-.58.89.89,0,0,0-.3-.73,1.61,1.61,0,0,0-1-.23,1.5,1.5,0,0,0-.95.25,1.19,1.19,0,0,0-.38.84h-2a2.18,2.18,0,0,1,1-1.81A4.23,4.23,0,0,1,512.86,158.82Zm-1.64,5.37c0,.62.4.93,1.21.93a1.46,1.46,0,0,0,1.61-1.64v-.77a2.34,2.34,0,0,1-1.2.35,3,3,0,0,0-1.23.34A.86.86,0,0,0,511.22,164.19Z" style="fill:#231f20"/><path d="M520.43,158.82a2.27,2.27,0,0,1,2.15,1.16h0v-1h1.89v6.79a2.91,2.91,0,0,1-1,2.38,4.21,4.21,0,0,1-2.76.81,3.72,3.72,0,0,1-2.25-.65,2.15,2.15,0,0,1-.94-1.67h2a1.32,1.32,0,0,0,1.48,1,1.52,1.52,0,0,0,1.18-.45,1.85,1.85,0,0,0,.41-1.3v-1h0a2.09,2.09,0,0,1-.86.83,2.87,2.87,0,0,1-1.31.29,2.83,2.83,0,0,1-2.26-.95,4,4,0,0,1-.82-2.69,3.85,3.85,0,0,1,.86-2.56A2.79,2.79,0,0,1,520.43,158.82Zm-1.12,3.55a2.6,2.6,0,0,0,.43,1.6,1.38,1.38,0,0,0,1.18.57,1.49,1.49,0,0,0,1.22-.55,2.2,2.2,0,0,0,.46-1.46,2.63,2.63,0,0,0-.44-1.66,1.51,1.51,0,0,0-1.26-.56,1.37,1.37,0,0,0-1.18.59A2.48,2.48,0,0,0,519.31,162.37Z" style="fill:#231f20"/><path d="M529.41,158.82a3.45,3.45,0,0,1,1.82.47,3.29,3.29,0,0,1,1.25,1.38,4.61,4.61,0,0,1,.45,2.08c0,.07,0,.2,0,.36h-5.21a2,2,0,0,0,.46,1.35,1.6,1.6,0,0,0,1.3.49,1.84,1.84,0,0,0,1-.28,1.26,1.26,0,0,0,.58-.66h1.74a3.23,3.23,0,0,1-3.38,2.44,4.18,4.18,0,0,1-1.83-.44,3.15,3.15,0,0,1-1.35-1.31,4.16,4.16,0,0,1-.5-2.06,4.07,4.07,0,0,1,.51-2,3.4,3.4,0,0,1,1.35-1.36A3.94,3.94,0,0,1,529.41,158.82Zm1.53,3a2.13,2.13,0,0,0-.52-1.17,1.5,1.5,0,0,0-1.08-.37,1.54,1.54,0,0,0-1.14.42,1.76,1.76,0,0,0-.49,1.12Z" style="fill:#231f20"/><path d="M487.6,171a4.37,4.37,0,0,1,2.89,1,3.58,3.58,0,0,1,1.31,2.53h-2.1a2.11,2.11,0,0,0-.75-1.26,2.17,2.17,0,0,0-1.35-.42,2.38,2.38,0,0,0-2,.93,4.07,4.07,0,0,0-.71,2.5,3.79,3.79,0,0,0,.73,2.45,2.4,2.4,0,0,0,2,.9,2.14,2.14,0,0,0,2.37-2.16h-2.21v-1.63H492v5.4h-1.39l-.23-1.13a3.29,3.29,0,0,1-2.73,1.37,4.6,4.6,0,0,1-3.55-1.46,5.27,5.27,0,0,1-1.35-3.74,5.46,5.46,0,0,1,1.34-3.8A4.58,4.58,0,0,1,487.6,171Z" style="fill:#231f20"/><path d="M497.73,173.82a1.11,1.11,0,0,1,.43.07v1.84a3.79,3.79,0,0,0-.71-.07c-1.3,0-1.95.78-1.95,2.33v3.26h-2V174h1.89v1.35h0a2.4,2.4,0,0,1,.92-1.12A2.48,2.48,0,0,1,497.73,173.82Z" style="fill:#231f20"/><path d="M502.19,173.82a3.61,3.61,0,0,1,2.74,1.05,3.86,3.86,0,0,1,1,2.77,3.76,3.76,0,0,1-1,2.76,4,4,0,0,1-5.44,0,4.3,4.3,0,0,1,0-5.54A3.65,3.65,0,0,1,502.19,173.82Zm-1.74,3.82a2.83,2.83,0,0,0,.45,1.71,1.7,1.7,0,0,0,2.61,0,3.49,3.49,0,0,0,0-3.41,1.53,1.53,0,0,0-1.32-.61,1.47,1.47,0,0,0-1.28.61A2.82,2.82,0,0,0,500.45,177.64Z" style="fill:#231f20"/><path d="M508.64,174l1.33,4.92h0l1.2-4.92h1.92l1.23,4.9h0l1.32-4.9h2l-2.27,7.24h-2l-1.28-4.86h0l-1.23,4.86h-2.05L506.55,174Z" style="fill:#231f20"/><path d="M521.09,171.84V174h1.45v1.33h-1.45v3.59a1,1,0,0,0,.17.67,1,1,0,0,0,.67.17,2.68,2.68,0,0,0,.61-.06v1.55a7.14,7.14,0,0,1-1.17.07,3,3,0,0,1-1.7-.39,1.52,1.52,0,0,1-.56-1.36v-4.24h-1.2V174h1.2v-2.17Z" style="fill:#231f20"/><path d="M525.47,171.25V175h0a2.48,2.48,0,0,1,.91-.88,2.39,2.39,0,0,1,1.22-.32,2.54,2.54,0,0,1,2,.7,3.28,3.28,0,0,1,.62,2.21v4.52h-2v-4.12a2.42,2.42,0,0,0-.29-1.31,1.09,1.09,0,0,0-1-.44,1.37,1.37,0,0,0-1.17.49,2.69,2.69,0,0,0-.37,1.59v3.79h-2v-10Z" style="fill:#231f20"/><path d="M125.35,156.12l2.33,6.87h0l2.2-6.87H133v10h-2.05V159h0l-2.45,7.09h-1.69l-2.44-7h0v7h-2v-10Z" style="fill:#231f20"/><path d="M138,158.68c2.11,0,3.16.7,3.16,2.06v3.84a3.46,3.46,0,0,0,.25,1.54h-2a2.81,2.81,0,0,1-.14-.7,3.29,3.29,0,0,1-2.43.89,2.65,2.65,0,0,1-1.79-.57,2,2,0,0,1-.67-1.6,1.94,1.94,0,0,1,.63-1.54,4.24,4.24,0,0,1,2.33-.73,4.48,4.48,0,0,0,1.52-.31.62.62,0,0,0,.32-.58.87.87,0,0,0-.29-.73,1.53,1.53,0,0,0-1-.24,1.49,1.49,0,0,0-.95.26,1.14,1.14,0,0,0-.38.83h-2a2.2,2.2,0,0,1,1-1.8A4.29,4.29,0,0,1,138,158.68Zm-1.64,5.38c0,.61.4.92,1.21.92a1.44,1.44,0,0,0,1.6-1.64v-.77a2.18,2.18,0,0,1-1.2.35,3,3,0,0,0-1.22.35A.85.85,0,0,0,136.39,164.06Z" style="fill:#231f20"/><path d="M146.87,158.68a2.58,2.58,0,0,1,2,.7,3.34,3.34,0,0,1,.62,2.23v4.51h-2V162a2.48,2.48,0,0,0-.29-1.33,1.11,1.11,0,0,0-1-.43,1.35,1.35,0,0,0-1.17.49,2.69,2.69,0,0,0-.37,1.61v3.77h-2v-7.24h1.89v1h0A2.42,2.42,0,0,1,146.87,158.68Z" style="fill:#231f20"/><path d="M154.32,158.68c2.1,0,3.15.7,3.15,2.06v3.84a3.61,3.61,0,0,0,.25,1.54h-2a3.34,3.34,0,0,1-.14-.7,3.25,3.25,0,0,1-2.42.89,2.66,2.66,0,0,1-1.8-.57,2,2,0,0,1-.66-1.6,1.94,1.94,0,0,1,.63-1.54,4.21,4.21,0,0,1,2.33-.73,4.48,4.48,0,0,0,1.52-.31.64.64,0,0,0,.32-.58.9.9,0,0,0-.29-.73,1.57,1.57,0,0,0-1-.24,1.51,1.51,0,0,0-.95.26,1.18,1.18,0,0,0-.38.83h-2a2.23,2.23,0,0,1,1-1.8A4.24,4.24,0,0,1,154.32,158.68Zm-1.65,5.38c0,.61.41.92,1.22.92a1.44,1.44,0,0,0,1.6-1.64v-.77a2.25,2.25,0,0,1-1.2.35,3,3,0,0,0-1.23.35A.85.85,0,0,0,152.67,164.06Z" style="fill:#231f20"/><path d="M161.88,158.68a2.28,2.28,0,0,1,2.15,1.16h0v-1h1.88v6.79a2.92,2.92,0,0,1-1,2.38,4.16,4.16,0,0,1-2.75.81,3.69,3.69,0,0,1-2.26-.66,2.16,2.16,0,0,1-.94-1.66h2c.16.66.65,1,1.48,1a1.53,1.53,0,0,0,1.18-.45,1.91,1.91,0,0,0,.41-1.3v-1h0a2,2,0,0,1-.86.82,2.71,2.71,0,0,1-1.3.3,2.83,2.83,0,0,1-2.27-1,4,4,0,0,1-.82-2.68,3.89,3.89,0,0,1,.86-2.57A2.79,2.79,0,0,1,161.88,158.68Zm-1.11,3.56a2.64,2.64,0,0,0,.42,1.59,1.38,1.38,0,0,0,1.18.58,1.55,1.55,0,0,0,1.23-.55,2.21,2.21,0,0,0,.46-1.47,2.64,2.64,0,0,0-.44-1.65,1.51,1.51,0,0,0-1.26-.56,1.35,1.35,0,0,0-1.18.58A2.46,2.46,0,0,0,160.77,162.24Z" style="fill:#231f20"/><path d="M170.87,158.68a3.42,3.42,0,0,1,1.81.48,3.29,3.29,0,0,1,1.25,1.38,4.46,4.46,0,0,1,.46,2.08c0,.07,0,.19,0,.36h-5.2a2.1,2.1,0,0,0,.45,1.35,1.66,1.66,0,0,0,1.31.48,1.89,1.89,0,0,0,1-.27,1.18,1.18,0,0,0,.58-.66h1.75a3.22,3.22,0,0,1-3.38,2.43,4.25,4.25,0,0,1-1.84-.43,3.13,3.13,0,0,1-1.34-1.31,4.41,4.41,0,0,1,0-4.08,3.36,3.36,0,0,1,1.36-1.36A3.8,3.8,0,0,1,170.87,158.68Zm1.52,3a2.06,2.06,0,0,0-.52-1.18,1.47,1.47,0,0,0-1.07-.36,1.56,1.56,0,0,0-1.14.41,1.74,1.74,0,0,0-.49,1.13Z" style="fill:#231f20"/><path d="M117.56,170.88a4.59,4.59,0,0,1,3.55,1.47,5.41,5.41,0,0,1,1.35,3.81,5.25,5.25,0,0,1-1.36,3.74,5.06,5.06,0,0,1-7.09,0,5.29,5.29,0,0,1-1.35-3.74,5.36,5.36,0,0,1,1.36-3.8A4.59,4.59,0,0,1,117.56,170.88Zm-2.71,5.28a3.88,3.88,0,0,0,.71,2.43,2.62,2.62,0,0,0,4,0,3.74,3.74,0,0,0,.73-2.44,4,4,0,0,0-.72-2.52,2.4,2.4,0,0,0-2-.91,2.38,2.38,0,0,0-2,.91A4,4,0,0,0,114.85,176.16Z" style="fill:#231f20"/><path d="M125.17,173.88l1.32,4.91h0l1.2-4.91h1.93l1.22,4.9h0l1.33-4.9h2L132,181.12h-2l-1.28-4.86h0l-1.23,4.86h-2l-2.29-7.24Z" style="fill:#231f20"/><path d="M139.25,173.68a2.57,2.57,0,0,1,2,.7,3.34,3.34,0,0,1,.62,2.23v4.51h-2V177a2.48,2.48,0,0,0-.29-1.33,1.11,1.11,0,0,0-1-.43,1.35,1.35,0,0,0-1.17.49,2.69,2.69,0,0,0-.37,1.61v3.77h-2v-7.24H137v1h0A2.42,2.42,0,0,1,139.25,173.68Z" style="fill:#231f20"/><path d="M146.71,173.68a3.46,3.46,0,0,1,1.82.48,3.36,3.36,0,0,1,1.25,1.38,4.58,4.58,0,0,1,.45,2.08c0,.07,0,.19,0,.36H145a2.1,2.1,0,0,0,.45,1.35,1.67,1.67,0,0,0,1.31.48,2,2,0,0,0,1-.27,1.26,1.26,0,0,0,.58-.66h1.74a3.22,3.22,0,0,1-3.38,2.43,4.18,4.18,0,0,1-1.83-.43,3.15,3.15,0,0,1-1.35-1.31,4.17,4.17,0,0,1-.5-2.07,4.06,4.06,0,0,1,.51-2,3.34,3.34,0,0,1,1.35-1.36A3.8,3.8,0,0,1,146.71,173.68Zm1.52,3a2.12,2.12,0,0,0-.51-1.18,1.5,1.5,0,0,0-1.08-.36,1.58,1.58,0,0,0-1.14.41,1.79,1.79,0,0,0-.49,1.13Z" style="fill:#231f20"/><path d="M155.6,173.68a1.45,1.45,0,0,1,.44.07v1.85a3.26,3.26,0,0,0-.72-.07c-1.3,0-1.95.78-1.95,2.32v3.27h-2v-7.24h1.88v1.34h0a2.47,2.47,0,0,1,.93-1.12A2.43,2.43,0,0,1,155.6,173.68Z" style="fill:#231f20"/><path d="M159.78,173.68a3.82,3.82,0,0,1,2.26.59A2.25,2.25,0,0,1,163,176h-1.89a1,1,0,0,0-.37-.75,1.77,1.77,0,0,0-1-.23,1.63,1.63,0,0,0-.83.17.55.55,0,0,0-.27.5.54.54,0,0,0,.18.42,1.47,1.47,0,0,0,.55.3,7.51,7.51,0,0,0,.82.21,8.8,8.8,0,0,1,1.91.54,2.07,2.07,0,0,1,.81.68,1.64,1.64,0,0,1,.26,1,2.18,2.18,0,0,1-.88,1.87,4,4,0,0,1-2.41.65,4,4,0,0,1-2.48-.68,2.32,2.32,0,0,1-.91-1.87h1.88a1.07,1.07,0,0,0,.43.89,1.77,1.77,0,0,0,1.09.33,1.67,1.67,0,0,0,.93-.24.77.77,0,0,0,.37-.68.56.56,0,0,0-.23-.46,2.3,2.3,0,0,0-.65-.33A12.9,12.9,0,0,0,159,178a5.83,5.83,0,0,1-1.24-.38,1.92,1.92,0,0,1-.83-.62,1.52,1.52,0,0,1-.28-.94,2.25,2.25,0,0,1,.34-1.25,2.09,2.09,0,0,1,1-.8A4.74,4.74,0,0,1,159.78,173.68Z" style="fill:#231f20"/><path d="M166.29,171.12v3.77h0a2.47,2.47,0,0,1,2.13-1.21,2.58,2.58,0,0,1,2,.7,3.31,3.31,0,0,1,.62,2.21v4.53h-2V177a2.44,2.44,0,0,0-.29-1.32,1.11,1.11,0,0,0-1-.43,1.39,1.39,0,0,0-1.17.48,2.74,2.74,0,0,0-.37,1.59v3.8h-2v-10Z" style="fill:#231f20"/><path d="M174.62,171.12v1.64h-2v-1.64Zm0,2.76v7.24h-2v-7.24Z" style="fill:#231f20"/><path d="M180.25,173.68a3,3,0,0,1,2.38,1,4.22,4.22,0,0,1,.9,2.84,4.11,4.11,0,0,1-.86,2.69,2.82,2.82,0,0,1-2.31,1.05,2.43,2.43,0,0,1-2.16-1.09h0v3.44h-2v-9.78h1.88v.92h0A2.38,2.38,0,0,1,180.25,173.68Zm-2.15,3.84a2.79,2.79,0,0,0,.45,1.68,1.47,1.47,0,0,0,1.28.61,1.45,1.45,0,0,0,1.29-.61,2.94,2.94,0,0,0,.43-1.68,2.83,2.83,0,0,0-.47-1.72,1.5,1.5,0,0,0-1.28-.62,1.45,1.45,0,0,0-1.26.62A2.93,2.93,0,0,0,178.1,177.52Z" style="fill:#231f20"/><path d="M545,39.59v6.58h-6.65v5.48h-6.66v9.71h21.39V39.59ZM533.08,53.08h5.24v6.86h-5.24Zm6.66,6.86V47.6H545V59.94Zm11.89,0h-5.24V41h5.24Z" style="fill:#fff"/><ellipse cx="506.12" cy="147.34" rx="124.87" ry="125.27" style="fill:none"/><path d="M506.87,148.24v-3.11a11.92,11.92,0,0,0,4.4.79,19,19,0,0,0,8.78-2.34c5.37-2.88,8.92-7.74,8.82-12.1v-.77l-.63-.45c-3.55-2.5-9.56-2.26-14.93.62a19.25,19.25,0,0,0-6.43,5.44V129c3.44-2.26,5.7-7.37,5.68-13.07,0-6.12-2.63-11.54-6.52-13.49l-.68-.35-.69.35c-3.87,2-6.47,7.41-6.45,13.52,0,5.62,2.23,10.65,5.6,12.95v2.21A19.88,19.88,0,0,0,499,126c-4.86-3.69-10.74-4.89-14.65-3l-.69.33-.14.77c-.78,4.28,1.95,9.64,6.81,13.34a17.86,17.86,0,0,0,10.42,3.88,10.23,10.23,0,0,0,3-.44v7.35H484.57v3.06h45.19v-3.06Zm7.86-14.66c4-2.12,8.35-2.57,11-1.22-.39,3-3.21,6.4-7.17,8.51s-8.35,2.58-11.05,1.23C508,139.1,510.77,135.7,514.73,133.58ZM492.21,135c-3.58-2.72-5.83-6.52-5.74-9.55,2.88-.9,7.14.24,10.71,3S503,135,502.92,138C500,138.88,495.78,137.73,492.21,135Zm9.05-19c0-4.51,1.64-8.61,4.09-10.37,2.47,1.75,4.14,5.84,4.15,10.35s-1.64,8.6-4.1,10.36C502.94,124.59,501.27,120.5,501.26,116Z" style="fill:#e63e2c"/><path d="M468.78,51.66a2.34,2.34,0,1,0-2.33-2.34A2.34,2.34,0,0,0,468.78,51.66Zm0-3.41a1.07,1.07,0,1,1-1.07,1.07A1.06,1.06,0,0,1,468.78,48.25Z" style="fill:#fff"/><path d="M462.36,51.34l1.17.29a5.76,5.76,0,0,0,.64,1.09l-.34,1.17a.76.76,0,0,0,.36.88L466.37,56a.77.77,0,0,0,.94-.13l.84-.87a5.23,5.23,0,0,0,1.25,0l.85.87a.77.77,0,0,0,.55.24.77.77,0,0,0,.39-.11l2.18-1.26a.76.76,0,0,0,.35-.88l-.33-1.17a5.7,5.7,0,0,0,.63-1.09l1.17-.29a.78.78,0,0,0,.59-.76V48.06a.76.76,0,0,0-.59-.75L474,47a5.15,5.15,0,0,0-.63-1.08l.33-1.17a.77.77,0,0,0-.35-.89l-2.18-1.26a.77.77,0,0,0-.94.13l-.85.87a5.23,5.23,0,0,0-1.25,0l-.84-.87a.77.77,0,0,0-.94-.13l-2.18,1.26a.77.77,0,0,0-.36.88l.34,1.18a5.68,5.68,0,0,0-.64,1.08l-1.17.3a.76.76,0,0,0-.58.75v2.52A.78.78,0,0,0,462.36,51.34Zm3.2-5.15-.4-1.41,1.51-.88,1,1.06.53-.07a3.63,3.63,0,0,1,1.14,0l.52.07,1-1.06,1.51.88-.4,1.41.32.42a4.52,4.52,0,0,1,.57,1l.21.49,1.41.36V50.2l-1.41.35-.21.49a4.52,4.52,0,0,1-.57,1l-.32.42.4,1.42-1.51.87-1-1.05-.52.06a3.63,3.63,0,0,1-1.14,0l-.53-.06-1,1.05-1.51-.87.4-1.42-.32-.42a4.57,4.57,0,0,1-.58-1l-.2-.49L463,50.2V48.45l1.42-.36.2-.49a4.57,4.57,0,0,1,.58-1Z" style="fill:#fff"/><path d="M479.12,39.59H457.63V58.28h21.49Zm-1.39,17.3H459V41h18.7Z" style="fill:#fff"/><rect x="456.38" y="59.96" width="24.27" height="1.4" style="fill:#fff"/><path d="M583.82,200.13a22.93,22.93,0,0,0-16.7-.13l1.24,1.63a21.19,21.19,0,0,1,6.95-1.15,20.77,20.77,0,0,1,7.25,1.26Z" style="fill:#fff"/><path d="M575.34,196.88a5.35,5.35,0,1,0-5-5.34A5.18,5.18,0,0,0,575.34,196.88Zm0-9a3.71,3.71,0,1,1-3.47,3.7A3.59,3.59,0,0,1,575.34,187.84Z" style="fill:#fff"/><path d="M588.32,208.68l-5.22-5.54a11.46,11.46,0,1,0-7.56,2.88,11.34,11.34,0,0,0,6.29-1.9l5.34,5.66Zm-22.68-14.27a9.9,9.9,0,1,1,9.9,10A10,10,0,0,1,565.64,194.41Z" style="fill:#fff"/><path d="M160.44,127.21a30.38,30.38,0,0,0-12.5,2.58,30.35,30.35,0,0,0-12.5-2.58,30,30,0,0,0-13.28,2.94l-1,.49V151.3H174.9V130.76l-1-.5A29.82,29.82,0,0,0,160.44,127.21Zm-35.71,20.54V132.86a28.34,28.34,0,0,1,21.46,0v14.87Zm46.63,0H149.9v-15a27.2,27.2,0,0,1,10.54-2A26.84,26.84,0,0,1,171.36,133Z" style="fill:#d05527"/><path d="M159.91,123.94A10.91,10.91,0,1,0,149,113,10.9,10.9,0,0,0,159.91,123.94Zm0-18.26a7.36,7.36,0,1,1-7.33,7.36A7.36,7.36,0,0,1,159.91,105.68Z" style="fill:#d05527"/><path d="M134.92,123.94A10.91,10.91,0,1,0,124,113,10.9,10.9,0,0,0,134.92,123.94Zm0-18.26a7.36,7.36,0,1,1-7.34,7.36A7.35,7.35,0,0,1,134.92,105.68Z" style="fill:#d05527"/><path d="M420.33,122a13.7,13.7,0,0,0-5.64,1.16A13.74,13.74,0,0,0,409,122a13.61,13.61,0,0,0-6,1.32l-.44.22v9.34h24.27v-9.28l-.43-.23A13.47,13.47,0,0,0,420.33,122Zm-16.14,9.28v-6.73a12.16,12.16,0,0,1,4.85-1,12.34,12.34,0,0,1,4.85,1v6.73Zm21.08,0h-9.7v-6.77a12.31,12.31,0,0,1,4.76-.91,12.17,12.17,0,0,1,4.94,1Z" style="fill:#fff"/><path d="M420.1,120.55a4.93,4.93,0,1,0-4.92-4.93A4.92,4.92,0,0,0,420.1,120.55Zm0-8.26a3.33,3.33,0,1,1-3.32,3.33A3.32,3.32,0,0,1,420.1,112.29Z" style="fill:#fff"/><path d="M408.8,120.55a4.93,4.93,0,1,0-4.91-4.93A4.92,4.92,0,0,0,408.8,120.55Zm0-8.26a3.33,3.33,0,1,1-3.32,3.33A3.32,3.32,0,0,1,408.8,112.29Z" style="fill:#fff"/><path id="Outline-v2" d="M514.45,213.77h-2.14v1.44h2.14v18.64H498.73V215.21h2.14v-1.44h-2.14a1.44,1.44,0,0,0-1.43,1.44v18.64a1.44,1.44,0,0,0,1.43,1.44h15.72a1.44,1.44,0,0,0,1.43-1.44V215.21a1.44,1.44,0,0,0-1.43-1.44Zm-12.15,0h8.58v-1.43H502.3Zm-.2,10a.72.72,0,1,0,0,1.44h9a.72.72,0,1,0,0-1.44Zm0-3.82a.72.72,0,1,0,0,1.43h9a.72.72,0,1,0,0-1.43Z" style="fill:#fff"/><path d="M245.39,146.92,241,138.2h-7v-3h-1.4v3h-7l-4.45,8.72v.7a4.87,4.87,0,1,0,9.74,0v-.7l-3.72-7.31h5.43v17.18h-5.14v1.41h11.68v-1.41H234V139.61h5.4l-3.72,7.31v.7a4.87,4.87,0,1,0,9.74,0ZM226,151.1a3.46,3.46,0,0,1-3.39-2.77h6.79A3.48,3.48,0,0,1,226,151.1Zm-3.28-4.18,3.29-6.46,3.28,6.46Zm17.81-6.47,3.29,6.47h-6.58Zm0,10.65a3.46,3.46,0,0,1-3.39-2.77h6.79A3.48,3.48,0,0,1,240.52,151.1Z" style="fill:#fff"/><path d="M148.32,228.23l7.24,1.81-.57.57-1.08,1.08,1.08,1.08,3,3L155.88,238l-3-3.05-1.08-1.08-1.07,1.08-.57.57-1.8-7.26m-2.09-2.09,3.06,12.34,2.47-2.48,4.12,4.13,4.3-4.31-4.11-4.13,2.47-2.48-12.31-3.07Z" style="fill:#fff"/><path d="M146.76,234.6q-.34,0-.69,0a8.67,8.67,0,1,1,8.64-8.67c0,.24,0,.48,0,.71l1.49.37a9.48,9.48,0,0,0,.07-1.08,10.17,10.17,0,1,0-10.17,10.2c.36,0,.71,0,1.06-.06Z" style="fill:#fff"/><path d="M145.94,231.28a5.33,5.33,0,1,1,5.44-5.43l1.52.38c0-.09,0-.18,0-.27a6.84,6.84,0,1,0-6.84,6.86h.24Z" style="fill:#fff"/><path d="M160.18,39H139v3.29h-3.07v11.9h14.6v1.55c0,1.29,1.69,2.31,3.85,2.31s3.85-1,3.85-2.31V50.93h2Zm-23,4.53h18.72v3.88a6.51,6.51,0,0,0-1.51-.18c-2.16,0-3.85,1-3.85,2.31V53H137.15Zm20.06,6c0,.61-1.22,1.3-2.85,1.3s-2.85-.69-2.85-1.3,1.22-1.3,2.85-1.3S157.21,49,157.21,49.57Zm-2.85,7.5c-1.63,0-2.85-.69-2.85-1.3v-.53a5.86,5.86,0,0,0,5.7,0v.53C157.21,56.38,156,57.07,154.36,57.07Zm0-2.09c-1.63,0-2.85-.69-2.85-1.31v-.44a5.79,5.79,0,0,0,5.7,0v.44C157.21,54.29,156,55,154.36,55Zm0-2c-1.63,0-2.85-.68-2.85-1.3v-.54a5.79,5.79,0,0,0,5.7,0v.54C157.21,52.29,156,53,154.36,53Zm4.58-3.29h-.73v-.11a2,2,0,0,0-1.1-1.63V42.32H140.22v-2h18.72Z" style="fill:#fff"/><path d="M146.51,44.42c-1.62,0-2.89,1.69-2.89,3.85s1.27,3.85,2.89,3.85,2.89-1.69,2.89-3.85S148.13,44.42,146.51,44.42Zm0,6.57c-1,0-1.77-1.24-1.77-2.72s.81-2.72,1.77-2.72,1.76,1.24,1.76,2.72S147.46,51,146.51,51Z" style="fill:#fff"/><path d="M449.54,192.09h1.1v-3l-12.05-6.38-12.23,6.44v3h1.1v14H426.4v1.7h24.22v-1.7h-1.08Zm-1.69,14h-5.1v-14h5.1Zm-6.79-14v14H436v-14Zm-13-1.93,10.53-5.55L449,190.12v.28H428.05Zm1.1,1.93h5.11v14h-5.11Z" style="fill:#fff"/><path d="M59.31,146.8A4.29,4.29,0,1,0,55,142.52,4.28,4.28,0,0,0,59.31,146.8Zm0-7a2.75,2.75,0,1,1-2.73,2.75A2.74,2.74,0,0,1,59.31,139.77Zm-7.59,9.14a3.59,3.59,0,1,0-3.57-3.59A3.58,3.58,0,0,0,51.72,148.91Zm0-5.63a2,2,0,1,1-2,2A2,2,0,0,1,51.72,143.28Zm15.68,5.63a3.59,3.59,0,1,0-3.58-3.59A3.58,3.58,0,0,0,67.4,148.91Zm0-5.63a2,2,0,1,1-2,2A2,2,0,0,1,67.4,143.28Zm-.68,6.8a10,10,0,0,0-1.55.12v-.3l-.42-.22a12.21,12.21,0,0,0-10.39,0l-.42.21v.35a9.92,9.92,0,0,0-1.55-.12,9.29,9.29,0,0,0-4.19.93l-.42.21v7H71.34v-7l-.43-.21A9.29,9.29,0,0,0,66.72,150.08Zm-17.4,6.57v-4.46a8.71,8.71,0,0,1,4.62-.43v4.89Zm6.17,0v-5.85a10.55,10.55,0,0,1,4-.77,10.44,10.44,0,0,1,4.12.81v5.81Zm14.31,0H65.17v-4.9a8.76,8.76,0,0,1,4.63.43Z" style="fill:#fff"/><path d="M605.87,127.86a12.7,12.7,0,0,0-.45-1.72l0-.07-.06,0c-.32-.3-.33-.31-7,.39a1.4,1.4,0,0,0-1.26-1.35l-6.87-.8-1.06-.83-7.49-2v9.37l.6.18c1.89.56,4.93,1.48,5.77,1.78a1.75,1.75,0,0,0,1,.17h.6l2.3,0,3.34-.08h.13l9.51-3.21A1.52,1.52,0,0,0,605.87,127.86Zm-22.57-4.24,5.05,1.36,1.17.91,7.1.83v1.08h-7.55v1.7h7.6a1.63,1.63,0,0,0,1.6-1.38c2-.21,4.6-.47,5.83-.58,0,.13.06.3.09.49l-9.1,3.07c-2.27.05-5.73.13-6.38.12-.62-.28-1.94-.68-5.4-1.71Z" style="fill:#fff"/><path d="M594.53,118.82a3.11,3.11,0,0,1-2.19-.9,3.13,3.13,0,0,1,0-4.42,3.1,3.1,0,0,1,4.41,0,3.15,3.15,0,0,1,.93,2.21h0a3.14,3.14,0,0,1-3.09,3.15Zm0-4.65h0a1.47,1.47,0,0,0-1.07.45,1.52,1.52,0,0,0-.44,1.08,1.56,1.56,0,0,0,.46,1.08,1.53,1.53,0,0,0,1.07.43,1.51,1.51,0,0,0,1.08-.45,1.49,1.49,0,0,0,.43-1.08h0a1.51,1.51,0,0,0-.45-1.08A1.53,1.53,0,0,0,594.53,114.17Z" style="fill:#fff"/><path d="M584.63,121.32l-.08-10.63,19-.15.08,10.63Zm1.53-9,.06,7.42,15.8-.12-.06-7.42Z" style="fill:#fff"/></g></svg>